solid OpenSCAD_Model
  facet normal -1 0 0
    outer loop
      vertex 8.5 -4.5 0
      vertex 8.5 14.98 2.7
      vertex 8.5 14.98 0
    endloop
  endfacet
  facet normal -1 -0 0
    outer loop
      vertex 8.5 14.98 2.7
      vertex 8.5 -4.5 0
      vertex 8.5 -4.5 2.7
    endloop
  endfacet
  facet normal 0 0 1
    outer loop
      vertex 17 14.98 2.7
      vertex 16.7 14.68 2.7
      vertex 17 9.8 2.7
    endloop
  endfacet
  facet normal 0 0 1
    outer loop
      vertex 17 14.98 2.7
      vertex 8.8 14.68 2.7
      vertex 16.7 14.68 2.7
    endloop
  endfacet
  facet normal 0 0 1
    outer loop
      vertex 8.8 14.68 2.7
      vertex 8.5 14.98 2.7
      vertex 8.8 1.8 2.7
    endloop
  endfacet
  facet normal -0 0 1
    outer loop
      vertex 8.5 14.98 2.7
      vertex 8.8 14.68 2.7
      vertex 17 14.98 2.7
    endloop
  endfacet
  facet normal -0 0 1
    outer loop
      vertex 16.7 10.1 2.7
      vertex 17 9.8 2.7
      vertex 16.7 14.68 2.7
    endloop
  endfacet
  facet normal 0 0 1
    outer loop
      vertex 16.7 10.1 2.7
      vertex 16.5 9.8 2.7
      vertex 17 9.8 2.7
    endloop
  endfacet
  facet normal 0 0 1
    outer loop
      vertex 16.5 9.8 2.7
      vertex 16.2 10.1 2.7
      vertex 16.5 8 2.7
    endloop
  endfacet
  facet normal -0 0 1
    outer loop
      vertex 16.2 10.1 2.7
      vertex 16.5 9.8 2.7
      vertex 16.7 10.1 2.7
    endloop
  endfacet
  facet normal 0 0 1
    outer loop
      vertex 16.7 5 2.7
      vertex 17 8 2.7
      vertex 16.7 7.7 2.7
    endloop
  endfacet
  facet normal -0 0 1
    outer loop
      vertex 16.5 8 2.7
      vertex 16.7 7.7 2.7
      vertex 17 8 2.7
    endloop
  endfacet
  facet normal 0 0 1
    outer loop
      vertex 16.5 8 2.7
      vertex 16.2 7.7 2.7
      vertex 16.7 7.7 2.7
    endloop
  endfacet
  facet normal 0 0 1
    outer loop
      vertex 16.2 7.7 2.7
      vertex 16.5 8 2.7
      vertex 16.2 10.1 2.7
    endloop
  endfacet
  facet normal 0 0 1
    outer loop
      vertex 17 8 2.7
      vertex 16.7 5 2.7
      vertex 17 -4.5 2.7
    endloop
  endfacet
  facet normal 0 0 1
    outer loop
      vertex 14.3 1.8 2.7
      vertex 16.7 5 2.7
      vertex 14.3 5 2.7
    endloop
  endfacet
  facet normal 0 0 1
    outer loop
      vertex 16.7 5 2.7
      vertex 14.3 1.8 2.7
      vertex 17 -4.5 2.7
    endloop
  endfacet
  facet normal 0 0 1
    outer loop
      vertex 8.5 -4.5 2.7
      vertex 14.3 1.8 2.7
      vertex 8.8 1.8 2.7
    endloop
  endfacet
  facet normal 0 0 1
    outer loop
      vertex 14.3 1.8 2.7
      vertex 8.5 -4.5 2.7
      vertex 17 -4.5 2.7
    endloop
  endfacet
  facet normal 0 0 1
    outer loop
      vertex 8.5 -4.5 2.7
      vertex 8.8 1.8 2.7
      vertex 8.5 14.98 2.7
    endloop
  endfacet
  facet normal -1 0 0
    outer loop
      vertex 17 14.98 0
      vertex 17 15 2.5
      vertex 17 15 0
    endloop
  endfacet
  facet normal -1 -0 0
    outer loop
      vertex 17 15 2.5
      vertex 17 14.98 0
      vertex 17 14.98 2.5
    endloop
  endfacet
  facet normal 1 -0 0
    outer loop
      vertex 17 9.8 2.7
      vertex 17 14.98 2.5
      vertex 17 14.98 2.7
    endloop
  endfacet
  facet normal 1 0 0
    outer loop
      vertex 17 14.98 2.5
      vertex 17 9.8 2.7
      vertex 17 9.8 2.5
    endloop
  endfacet
  facet normal 1 -0 0
    outer loop
      vertex 17 -4.5 2.7
      vertex 17 8 2.5
      vertex 17 8 2.7
    endloop
  endfacet
  facet normal 1 0 0
    outer loop
      vertex 17 8 2.5
      vertex 17 -4.5 2.7
      vertex 17 -4.5 2.5
    endloop
  endfacet
  facet normal 0 0 -1
    outer loop
      vertex 16.2 7.7 0
      vertex 16.7 10.1 0
      vertex 16.7 7.7 0
    endloop
  endfacet
  facet normal -0 0 -1
    outer loop
      vertex 16.7 10.1 0
      vertex 16.2 7.7 0
      vertex 16.2 10.1 0
    endloop
  endfacet
  facet normal 0 0 -1
    outer loop
      vertex 16.7 10.1 0
      vertex 22 23 0
      vertex 22 -4.5 0
    endloop
  endfacet
  facet normal 0 0 -1
    outer loop
      vertex 16.7 7.7 0
      vertex 22 -4.5 0
      vertex 16.7 1.8 0
    endloop
  endfacet
  facet normal 0 0 -1
    outer loop
      vertex 8.5 -4.5 0
      vertex 16.7 1.8 0
      vertex 22 -4.5 0
    endloop
  endfacet
  facet normal 0 0 -1
    outer loop
      vertex 8.5 14.98 0
      vertex 8.8 1.8 0
      vertex 8.5 -4.5 0
    endloop
  endfacet
  facet normal -0 0 -1
    outer loop
      vertex 16.7 1.8 0
      vertex 8.5 -4.5 0
      vertex 8.8 1.8 0
    endloop
  endfacet
  facet normal 0 0 -1
    outer loop
      vertex 17 15 0
      vertex 22 23 0
      vertex 17 14.98 0
    endloop
  endfacet
  facet normal 0 0 -1
    outer loop
      vertex 8.5 23 0
      vertex 17 15 0
      vertex 8.5 15 0
    endloop
  endfacet
  facet normal 0 0 -1
    outer loop
      vertex 17 15 0
      vertex 8.5 23 0
      vertex 22 23 0
    endloop
  endfacet
  facet normal 0 0 -1
    outer loop
      vertex 16.7 10.1 0
      vertex 22 -4.5 0
      vertex 16.7 7.7 0
    endloop
  endfacet
  facet normal 0 0 -1
    outer loop
      vertex 22 23 0
      vertex 16.7 10.1 0
      vertex 17 14.98 0
    endloop
  endfacet
  facet normal 0 0 -1
    outer loop
      vertex 16.7 14.68 0
      vertex 17 14.98 0
      vertex 16.7 10.1 0
    endloop
  endfacet
  facet normal 0 0 -1
    outer loop
      vertex 8.8 14.68 0
      vertex 17 14.98 0
      vertex 16.7 14.68 0
    endloop
  endfacet
  facet normal 0 0 -1
    outer loop
      vertex 8.8 14.68 0
      vertex 8.5 14.98 0
      vertex 17 14.98 0
    endloop
  endfacet
  facet normal 0 0 -1
    outer loop
      vertex 8.8 1.8 0
      vertex 8.5 14.98 0
      vertex 8.8 14.68 0
    endloop
  endfacet
  facet normal 0 -1 0
    outer loop
      vertex 8.5 -4.5 2.7
      vertex 17 -4.5 2.5
      vertex 17 -4.5 2.7
    endloop
  endfacet
  facet normal 0 -1 0
    outer loop
      vertex 8.5 -4.5 0
      vertex 17 -4.5 2.5
      vertex 8.5 -4.5 2.7
    endloop
  endfacet
  facet normal 0 -1 0
    outer loop
      vertex 22 -4.5 0
      vertex 17 -4.5 2.5
      vertex 8.5 -4.5 0
    endloop
  endfacet
  facet normal 0 -1 0
    outer loop
      vertex 17 -4.5 2.5
      vertex 22 -4.5 0
      vertex 22 -4.5 2.5
    endloop
  endfacet
  facet normal -0 0 1
    outer loop
      vertex 16.5 9.8 2.5
      vertex 17 8 2.5
      vertex 17 9.8 2.5
    endloop
  endfacet
  facet normal 0 0 1
    outer loop
      vertex 17 8 2.5
      vertex 16.5 9.8 2.5
      vertex 16.5 8 2.5
    endloop
  endfacet
  facet normal 0 0 1
    outer loop
      vertex 17 14.98 2.5
      vertex 22 23 2.5
      vertex 17 15 2.5
    endloop
  endfacet
  facet normal -0 0 1
    outer loop
      vertex 8.5 23 2.5
      vertex 17 15 2.5
      vertex 22 23 2.5
    endloop
  endfacet
  facet normal 0 0 1
    outer loop
      vertex 17 15 2.5
      vertex 8.5 23 2.5
      vertex 8.5 15 2.5
    endloop
  endfacet
  facet normal 0 0 1
    outer loop
      vertex 17 9.8 2.5
      vertex 22 23 2.5
      vertex 17 14.98 2.5
    endloop
  endfacet
  facet normal 0 0 1
    outer loop
      vertex 22 23 2.5
      vertex 17 9.8 2.5
      vertex 22 -4.5 2.5
    endloop
  endfacet
  facet normal -0 0 1
    outer loop
      vertex 17 8 2.5
      vertex 22 -4.5 2.5
      vertex 17 9.8 2.5
    endloop
  endfacet
  facet normal 0 0 1
    outer loop
      vertex 22 -4.5 2.5
      vertex 17 8 2.5
      vertex 17 -4.5 2.5
    endloop
  endfacet
  facet normal 1 -0 0
    outer loop
      vertex 22 -4.5 2.5
      vertex 22 23 0
      vertex 22 23 2.5
    endloop
  endfacet
  facet normal 1 0 0
    outer loop
      vertex 22 23 0
      vertex 22 -4.5 2.5
      vertex 22 -4.5 0
    endloop
  endfacet
  facet normal 0 1 -0
    outer loop
      vertex 17 8 2.5
      vertex 16.5 8 2.7
      vertex 17 8 2.7
    endloop
  endfacet
  facet normal 0 1 0
    outer loop
      vertex 16.5 8 2.7
      vertex 17 8 2.5
      vertex 16.5 8 2.5
    endloop
  endfacet
  facet normal 0 -1 0
    outer loop
      vertex 16.5 9.8 2.5
      vertex 17 9.8 2.7
      vertex 16.5 9.8 2.7
    endloop
  endfacet
  facet normal 0 -1 -0
    outer loop
      vertex 17 9.8 2.7
      vertex 16.5 9.8 2.5
      vertex 17 9.8 2.5
    endloop
  endfacet
  facet normal 0 -1 0
    outer loop
      vertex 8.5 15 0
      vertex 17 15 2.5
      vertex 8.5 15 2.5
    endloop
  endfacet
  facet normal 0 -1 -0
    outer loop
      vertex 17 15 2.5
      vertex 8.5 15 0
      vertex 17 15 0
    endloop
  endfacet
  facet normal -1 0 0
    outer loop
      vertex 8.5 15 0
      vertex 8.5 23 2.5
      vertex 8.5 23 0
    endloop
  endfacet
  facet normal -1 -0 0
    outer loop
      vertex 8.5 23 2.5
      vertex 8.5 15 0
      vertex 8.5 15 2.5
    endloop
  endfacet
  facet normal 0 1 -0
    outer loop
      vertex 22 23 0
      vertex 8.5 23 2.5
      vertex 22 23 2.5
    endloop
  endfacet
  facet normal 0 1 0
    outer loop
      vertex 8.5 23 2.5
      vertex 22 23 0
      vertex 8.5 23 0
    endloop
  endfacet
  facet normal 0 1 0
    outer loop
      vertex 16.7 1.8 2.4
      vertex 16.7 1.8 0
      vertex 14.3 1.8 2.4
    endloop
  endfacet
  facet normal 0 1 -0
    outer loop
      vertex 14.3 1.8 2.4
      vertex 8.8 1.8 2.7
      vertex 14.3 1.8 2.7
    endloop
  endfacet
  facet normal 0 1 0
    outer loop
      vertex 8.8 1.8 0
      vertex 14.3 1.8 2.4
      vertex 16.7 1.8 0
    endloop
  endfacet
  facet normal 0 1 0
    outer loop
      vertex 14.3 1.8 2.4
      vertex 8.8 1.8 0
      vertex 8.8 1.8 2.7
    endloop
  endfacet
  facet normal -1 0 0
    outer loop
      vertex 16.7 7.7 0
      vertex 16.7 5 2.4
      vertex 16.7 7.7 2.7
    endloop
  endfacet
  facet normal -1 0 0
    outer loop
      vertex 16.7 1.8 0
      vertex 16.7 5 2.4
      vertex 16.7 7.7 0
    endloop
  endfacet
  facet normal -1 -0 0
    outer loop
      vertex 16.7 5 2.4
      vertex 16.7 1.8 0
      vertex 16.7 1.8 2.4
    endloop
  endfacet
  facet normal -1 -0 0
    outer loop
      vertex 16.7 7.7 2.7
      vertex 16.7 5 2.4
      vertex 16.7 5 2.7
    endloop
  endfacet
  facet normal -1 0 0
    outer loop
      vertex 16.2 7.7 0
      vertex 16.2 10.1 2.7
      vertex 16.2 10.1 0
    endloop
  endfacet
  facet normal -1 -0 0
    outer loop
      vertex 16.2 10.1 2.7
      vertex 16.2 7.7 0
      vertex 16.2 7.7 2.7
    endloop
  endfacet
  facet normal 0 -1 0
    outer loop
      vertex 16.2 7.7 0
      vertex 16.7 7.7 2.7
      vertex 16.2 7.7 2.7
    endloop
  endfacet
  facet normal 0 -1 -0
    outer loop
      vertex 16.7 7.7 2.7
      vertex 16.2 7.7 0
      vertex 16.7 7.7 0
    endloop
  endfacet
  facet normal 1 -0 0
    outer loop
      vertex 16.5 8 2.7
      vertex 16.5 9.8 2.5
      vertex 16.5 9.8 2.7
    endloop
  endfacet
  facet normal 1 0 0
    outer loop
      vertex 16.5 9.8 2.5
      vertex 16.5 8 2.7
      vertex 16.5 8 2.5
    endloop
  endfacet
  facet normal 0 1 -0
    outer loop
      vertex 16.7 10.1 0
      vertex 16.2 10.1 2.7
      vertex 16.7 10.1 2.7
    endloop
  endfacet
  facet normal 0 1 0
    outer loop
      vertex 16.2 10.1 2.7
      vertex 16.7 10.1 0
      vertex 16.2 10.1 0
    endloop
  endfacet
  facet normal -1 0 0
    outer loop
      vertex 16.7 10.1 0
      vertex 16.7 14.68 2.7
      vertex 16.7 14.68 0
    endloop
  endfacet
  facet normal -1 -0 0
    outer loop
      vertex 16.7 14.68 2.7
      vertex 16.7 10.1 0
      vertex 16.7 10.1 2.7
    endloop
  endfacet
  facet normal 0 1 -0
    outer loop
      vertex 17 14.98 2.5
      vertex 8.5 14.98 2.7
      vertex 17 14.98 2.7
    endloop
  endfacet
  facet normal 0 1 0
    outer loop
      vertex 8.5 14.98 0
      vertex 17 14.98 2.5
      vertex 17 14.98 0
    endloop
  endfacet
  facet normal 0 1 0
    outer loop
      vertex 17 14.98 2.5
      vertex 8.5 14.98 0
      vertex 8.5 14.98 2.7
    endloop
  endfacet
  facet normal 0 -1 0
    outer loop
      vertex 8.8 14.68 0
      vertex 16.7 14.68 2.7
      vertex 8.8 14.68 2.7
    endloop
  endfacet
  facet normal 0 -1 -0
    outer loop
      vertex 16.7 14.68 2.7
      vertex 8.8 14.68 0
      vertex 16.7 14.68 0
    endloop
  endfacet
  facet normal 1 -0 0
    outer loop
      vertex 8.8 1.8 2.7
      vertex 8.8 14.68 0
      vertex 8.8 14.68 2.7
    endloop
  endfacet
  facet normal 1 0 0
    outer loop
      vertex 8.8 14.68 0
      vertex 8.8 1.8 2.7
      vertex 8.8 1.8 0
    endloop
  endfacet
  facet normal 1 -0 0
    outer loop
      vertex 17 1.4 5.5
      vertex 17 1.5 5.4
      vertex 17 1.8 5.5
    endloop
  endfacet
  facet normal 1 0 0
    outer loop
      vertex 17 1.2 5.4
      vertex 17 1.4 5.5
      vertex 17 1.2 5.5
    endloop
  endfacet
  facet normal 1 0 0
    outer loop
      vertex 17 1.4 5.5
      vertex 17 1.2 5.4
      vertex 17 1.5 5.4
    endloop
  endfacet
  facet normal 1 0 0
    outer loop
      vertex 17 8 8.7
      vertex 17 4.7 5.5
      vertex 17 8 5.5
    endloop
  endfacet
  facet normal 1 -0 0
    outer loop
      vertex 17 3 8.7
      vertex 17 4.7 5.5
      vertex 17 8 8.7
    endloop
  endfacet
  facet normal 1 -0 0
    outer loop
      vertex 17 3 6.5
      vertex 17 4.7 5.5
      vertex 17 3 8.7
    endloop
  endfacet
  facet normal 1 0 0
    outer loop
      vertex 17 4.7 5.5
      vertex 17 3 6.5
      vertex 17 4.7 5.2
    endloop
  endfacet
  facet normal 1 0 0
    outer loop
      vertex 17 3 6.5
      vertex 17 1.9 5.2
      vertex 17 4.7 5.2
    endloop
  endfacet
  facet normal 1 0 0
    outer loop
      vertex 17 1.8 5.5
      vertex 17 3 6.5
      vertex 17 1.8 6.5
    endloop
  endfacet
  facet normal 1 0 0
    outer loop
      vertex 17 3 6.5
      vertex 17 1.8 5.5
      vertex 17 1.9 5.2
    endloop
  endfacet
  facet normal 1 -0 0
    outer loop
      vertex 17 1.5 5.4
      vertex 17 1.9 5.2
      vertex 17 1.8 5.5
    endloop
  endfacet
  facet normal 1 0 0
    outer loop
      vertex 17 1.5 2.7
      vertex 17 1.9 5.2
      vertex 17 1.5 5.4
    endloop
  endfacet
  facet normal 1 0 0
    outer loop
      vertex 17 1.9 5.2
      vertex 17 1.5 2.7
      vertex 17 1.9 2.7
    endloop
  endfacet
  facet normal 1 0 0
    outer loop
      vertex 17 4.7 5.2
      vertex 17 8 5.5
      vertex 17 4.7 5.5
    endloop
  endfacet
  facet normal 1 0 0
    outer loop
      vertex 17 8 5.5
      vertex 17 4.7 5.2
      vertex 17 8 2.7
    endloop
  endfacet
  facet normal 1 0 0
    outer loop
      vertex 17 8 2.7
      vertex 17 4.7 5.2
      vertex 17 4.7 2.7
    endloop
  endfacet
  facet normal -0 0 1
    outer loop
      vertex 14.3 4.7 5.5
      vertex 14.5 3 5.5
      vertex 14.5 4.7 5.5
    endloop
  endfacet
  facet normal 0 0 1
    outer loop
      vertex 14.5 3 5.5
      vertex 14.3 4.7 5.5
      vertex 14.3 3 5.5
    endloop
  endfacet
  facet normal 0 0 1
    outer loop
      vertex 17 14.98 5.5
      vertex 16.7 14.68 5.5
      vertex 17 9.8 5.5
    endloop
  endfacet
  facet normal 0 0 1
    outer loop
      vertex 17 14.98 5.5
      vertex 8.8 14.68 5.5
      vertex 16.7 14.68 5.5
    endloop
  endfacet
  facet normal -0 0 1
    outer loop
      vertex 8.5 14.98 5.5
      vertex 8.8 14.68 5.5
      vertex 17 14.98 5.5
    endloop
  endfacet
  facet normal 0 0 1
    outer loop
      vertex 8.5 3 5.5
      vertex 8.8 14.68 5.5
      vertex 8.5 14.98 5.5
    endloop
  endfacet
  facet normal 0 0 1
    outer loop
      vertex 8.8 14.68 5.5
      vertex 8.5 3 5.5
      vertex 8.8 3 5.5
    endloop
  endfacet
  facet normal -0 0 1
    outer loop
      vertex 16.7 10.1 5.5
      vertex 17 9.8 5.5
      vertex 16.7 14.68 5.5
    endloop
  endfacet
  facet normal 0 0 1
    outer loop
      vertex 16.7 10.1 5.5
      vertex 16.5 9.8 5.5
      vertex 17 9.8 5.5
    endloop
  endfacet
  facet normal 0 0 1
    outer loop
      vertex 16.5 9.8 5.5
      vertex 16.2 10.1 5.5
      vertex 16.5 8 5.5
    endloop
  endfacet
  facet normal -0 0 1
    outer loop
      vertex 16.2 10.1 5.5
      vertex 16.5 9.8 5.5
      vertex 16.7 10.1 5.5
    endloop
  endfacet
  facet normal 0 0 1
    outer loop
      vertex 17 8 5.5
      vertex 16.7 7.7 5.5
      vertex 17 4.7 5.5
    endloop
  endfacet
  facet normal -0 0 1
    outer loop
      vertex 16.5 8 5.5
      vertex 16.7 7.7 5.5
      vertex 17 8 5.5
    endloop
  endfacet
  facet normal 0 0 1
    outer loop
      vertex 16.5 8 5.5
      vertex 16.2 7.7 5.5
      vertex 16.7 7.7 5.5
    endloop
  endfacet
  facet normal 0 0 1
    outer loop
      vertex 16.2 7.7 5.5
      vertex 16.5 8 5.5
      vertex 16.2 10.1 5.5
    endloop
  endfacet
  facet normal -0 0 1
    outer loop
      vertex 16.7 5 5.5
      vertex 17 4.7 5.5
      vertex 16.7 7.7 5.5
    endloop
  endfacet
  facet normal 0 0 1
    outer loop
      vertex 14.6 4.7 5.5
      vertex 16.7 5 5.5
      vertex 14.6 5 5.5
    endloop
  endfacet
  facet normal 0 0 1
    outer loop
      vertex 16.7 5 5.5
      vertex 14.6 4.7 5.5
      vertex 17 4.7 5.5
    endloop
  endfacet
  facet normal -1 0 0
    outer loop
      vertex 8.5 14.98 2.7
      vertex 8.5 3 5.5
      vertex 8.5 14.98 5.5
    endloop
  endfacet
  facet normal -1 0 0
    outer loop
      vertex 8.5 1.5 2.7
      vertex 8.5 3 5.5
      vertex 8.5 14.98 2.7
    endloop
  endfacet
  facet normal -1 0 0
    outer loop
      vertex 8.5 1.5 5.4
      vertex 8.5 3 5.5
      vertex 8.5 1.5 2.7
    endloop
  endfacet
  facet normal -1 0 0
    outer loop
      vertex 8.5 1.2 5.5
      vertex 8.5 1.5 5.4
      vertex 8.5 1.2 5.4
    endloop
  endfacet
  facet normal -1 0 0
    outer loop
      vertex 8.5 1.5 5.4
      vertex 8.5 1.2 5.5
      vertex 8.5 3 5.5
    endloop
  endfacet
  facet normal 0 0 -1
    outer loop
      vertex 14.6 1.5 2.7
      vertex 14.3 1.8 2.7
      vertex 14.6 4.7 2.7
    endloop
  endfacet
  facet normal 0 0 -1
    outer loop
      vertex 14.6 1.5 2.7
      vertex 8.8 1.8 2.7
      vertex 14.3 1.8 2.7
    endloop
  endfacet
  facet normal -0 0 -1
    outer loop
      vertex 8.8 1.8 2.7
      vertex 8.5 1.5 2.7
      vertex 8.8 14.68 2.7
    endloop
  endfacet
  facet normal 0 0 -1
    outer loop
      vertex 8.5 1.5 2.7
      vertex 8.8 1.8 2.7
      vertex 14.6 1.5 2.7
    endloop
  endfacet
  facet normal -0 0 -1
    outer loop
      vertex 14.6 4.7 2.7
      vertex 14.3 1.8 2.7
      vertex 14.3 4.7 2.7
    endloop
  endfacet
  facet normal 0 0 -1
    outer loop
      vertex 17 4.7 2.7
      vertex 16.7 5 2.7
      vertex 17 8 2.7
    endloop
  endfacet
  facet normal 0 0 -1
    outer loop
      vertex 14.6 4.7 2.7
      vertex 16.7 5 2.7
      vertex 17 4.7 2.7
    endloop
  endfacet
  facet normal -0 0 -1
    outer loop
      vertex 16.7 5 2.7
      vertex 14.6 4.7 2.7
      vertex 14.6 5 2.7
    endloop
  endfacet
  facet normal 0 0 -1
    outer loop
      vertex 16.7 7.7 2.7
      vertex 17 8 2.7
      vertex 16.7 5 2.7
    endloop
  endfacet
  facet normal 0 0 -1
    outer loop
      vertex 16.7 7.7 2.7
      vertex 16.5 8 2.7
      vertex 17 8 2.7
    endloop
  endfacet
  facet normal -0 0 -1
    outer loop
      vertex 16.5 8 2.7
      vertex 16.2 7.7 2.7
      vertex 16.5 9.8 2.7
    endloop
  endfacet
  facet normal 0 0 -1
    outer loop
      vertex 16.2 7.7 2.7
      vertex 16.5 8 2.7
      vertex 16.7 7.7 2.7
    endloop
  endfacet
  facet normal 0 0 -1
    outer loop
      vertex 17 9.8 2.7
      vertex 16.7 10.1 2.7
      vertex 17 14.98 2.7
    endloop
  endfacet
  facet normal 0 0 -1
    outer loop
      vertex 16.5 9.8 2.7
      vertex 16.7 10.1 2.7
      vertex 17 9.8 2.7
    endloop
  endfacet
  facet normal 0 0 -1
    outer loop
      vertex 16.5 9.8 2.7
      vertex 16.2 10.1 2.7
      vertex 16.7 10.1 2.7
    endloop
  endfacet
  facet normal 0 0 -1
    outer loop
      vertex 16.2 10.1 2.7
      vertex 16.5 9.8 2.7
      vertex 16.2 7.7 2.7
    endloop
  endfacet
  facet normal 0 0 -1
    outer loop
      vertex 16.7 14.68 2.7
      vertex 17 14.98 2.7
      vertex 16.7 10.1 2.7
    endloop
  endfacet
  facet normal 0 0 -1
    outer loop
      vertex 8.8 14.68 2.7
      vertex 17 14.98 2.7
      vertex 16.7 14.68 2.7
    endloop
  endfacet
  facet normal 0 0 -1
    outer loop
      vertex 8.8 14.68 2.7
      vertex 8.5 14.98 2.7
      vertex 17 14.98 2.7
    endloop
  endfacet
  facet normal 0 0 -1
    outer loop
      vertex 8.5 14.98 2.7
      vertex 8.8 14.68 2.7
      vertex 8.5 1.5 2.7
    endloop
  endfacet
  facet normal 0 -1 0
    outer loop
      vertex 8.5 1.5 5.4
      vertex 14.6 1.5 5.2
      vertex 17 1.5 5.4
    endloop
  endfacet
  facet normal 0 -1 0
    outer loop
      vertex 8.5 1.5 2.7
      vertex 14.6 1.5 5.2
      vertex 8.5 1.5 5.4
    endloop
  endfacet
  facet normal 0 -1 -0
    outer loop
      vertex 14.6 1.5 5.2
      vertex 8.5 1.5 2.7
      vertex 14.6 1.5 2.7
    endloop
  endfacet
  facet normal 0 -1 0
    outer loop
      vertex 16.6 1.5 5.2
      vertex 17 1.5 5.4
      vertex 14.6 1.5 5.2
    endloop
  endfacet
  facet normal 0 -1 0
    outer loop
      vertex 17 1.5 2.7
      vertex 16.6 1.5 5.2
      vertex 16.6 1.5 2.7
    endloop
  endfacet
  facet normal 0 -1 0
    outer loop
      vertex 16.6 1.5 5.2
      vertex 17 1.5 2.7
      vertex 17 1.5 5.4
    endloop
  endfacet
  facet normal 0 1 -0
    outer loop
      vertex 14.3 1.8 2.7
      vertex 8.8 1.8 5.2
      vertex 14.3 1.8 5.2
    endloop
  endfacet
  facet normal 0 1 0
    outer loop
      vertex 8.8 1.8 5.2
      vertex 14.3 1.8 2.7
      vertex 8.8 1.8 2.7
    endloop
  endfacet
  facet normal -1 0 0
    outer loop
      vertex 16.7 5 2.7
      vertex 16.7 7.7 5.5
      vertex 16.7 7.7 2.7
    endloop
  endfacet
  facet normal -1 -0 0
    outer loop
      vertex 16.7 7.7 5.5
      vertex 16.7 5 2.7
      vertex 16.7 5 5.5
    endloop
  endfacet
  facet normal 0 1 -0
    outer loop
      vertex 17 8 2.7
      vertex 16.5 8 5.5
      vertex 17 8 5.5
    endloop
  endfacet
  facet normal 0 1 0
    outer loop
      vertex 16.5 8 5.5
      vertex 17 8 2.7
      vertex 16.5 8 2.7
    endloop
  endfacet
  facet normal -1 0 0
    outer loop
      vertex 16.2 7.7 2.7
      vertex 16.2 10.1 5.5
      vertex 16.2 10.1 2.7
    endloop
  endfacet
  facet normal -1 -0 0
    outer loop
      vertex 16.2 10.1 5.5
      vertex 16.2 7.7 2.7
      vertex 16.2 7.7 5.5
    endloop
  endfacet
  facet normal 0 -1 0
    outer loop
      vertex 16.2 7.7 2.7
      vertex 16.7 7.7 5.5
      vertex 16.2 7.7 5.5
    endloop
  endfacet
  facet normal 0 -1 -0
    outer loop
      vertex 16.7 7.7 5.5
      vertex 16.2 7.7 2.7
      vertex 16.7 7.7 2.7
    endloop
  endfacet
  facet normal 1 -0 0
    outer loop
      vertex 16.5 8 5.5
      vertex 16.5 9.8 2.7
      vertex 16.5 9.8 5.5
    endloop
  endfacet
  facet normal 1 0 0
    outer loop
      vertex 16.5 9.8 2.7
      vertex 16.5 8 5.5
      vertex 16.5 8 2.7
    endloop
  endfacet
  facet normal 0 1 -0
    outer loop
      vertex 16.7 10.1 2.7
      vertex 16.2 10.1 5.5
      vertex 16.7 10.1 5.5
    endloop
  endfacet
  facet normal 0 1 0
    outer loop
      vertex 16.2 10.1 5.5
      vertex 16.7 10.1 2.7
      vertex 16.2 10.1 2.7
    endloop
  endfacet
  facet normal 1 -0 0
    outer loop
      vertex 17 9.8 5.5
      vertex 17 14.98 2.7
      vertex 17 14.98 5.5
    endloop
  endfacet
  facet normal 1 0 0
    outer loop
      vertex 17 14.98 2.7
      vertex 17 9.8 5.5
      vertex 17 9.8 2.7
    endloop
  endfacet
  facet normal 0 -1 0
    outer loop
      vertex 16.5 9.8 2.7
      vertex 17 9.8 5.5
      vertex 16.5 9.8 5.5
    endloop
  endfacet
  facet normal 0 -1 -0
    outer loop
      vertex 17 9.8 5.5
      vertex 16.5 9.8 2.7
      vertex 17 9.8 2.7
    endloop
  endfacet
  facet normal -1 0 0
    outer loop
      vertex 16.7 10.1 2.7
      vertex 16.7 14.68 5.5
      vertex 16.7 14.68 2.7
    endloop
  endfacet
  facet normal -1 -0 0
    outer loop
      vertex 16.7 14.68 5.5
      vertex 16.7 10.1 2.7
      vertex 16.7 10.1 5.5
    endloop
  endfacet
  facet normal 0 1 -0
    outer loop
      vertex 17 14.98 2.7
      vertex 8.5 14.98 5.5
      vertex 17 14.98 5.5
    endloop
  endfacet
  facet normal 0 1 0
    outer loop
      vertex 8.5 14.98 5.5
      vertex 17 14.98 2.7
      vertex 8.5 14.98 2.7
    endloop
  endfacet
  facet normal 0 -1 0
    outer loop
      vertex 8.8 14.68 2.7
      vertex 16.7 14.68 5.5
      vertex 8.8 14.68 5.5
    endloop
  endfacet
  facet normal 0 -1 -0
    outer loop
      vertex 16.7 14.68 5.5
      vertex 8.8 14.68 2.7
      vertex 16.7 14.68 2.7
    endloop
  endfacet
  facet normal 1 0 0
    outer loop
      vertex 8.8 3 5.2
      vertex 8.8 14.68 5.5
      vertex 8.8 3 5.5
    endloop
  endfacet
  facet normal 1 0 0
    outer loop
      vertex 8.8 14.68 5.5
      vertex 8.8 3 5.2
      vertex 8.8 14.68 2.7
    endloop
  endfacet
  facet normal 1 0 0
    outer loop
      vertex 8.8 1.8 2.7
      vertex 8.8 3 5.2
      vertex 8.8 1.8 5.2
    endloop
  endfacet
  facet normal 1 0 0
    outer loop
      vertex 8.8 3 5.2
      vertex 8.8 1.8 2.7
      vertex 8.8 14.68 2.7
    endloop
  endfacet
  facet normal -1 0 0
    outer loop
      vertex 14.6 4.7 5.2
      vertex 14.6 5 2.7
      vertex 14.6 4.7 2.7
    endloop
  endfacet
  facet normal -1 0 0
    outer loop
      vertex 14.6 5 2.7
      vertex 14.6 4.7 5.2
      vertex 14.6 5 5.5
    endloop
  endfacet
  facet normal -1 -0 0
    outer loop
      vertex 14.6 5 5.5
      vertex 14.6 4.7 5.2
      vertex 14.6 4.7 5.5
    endloop
  endfacet
  facet normal 0 1 0
    outer loop
      vertex 16.7 4.7 5.5
      vertex 17 4.7 5.5
      vertex 14.6 4.7 5.5
    endloop
  endfacet
  facet normal 0 1 0
    outer loop
      vertex 16.7 4.7 5.5
      vertex 14.6 4.7 5.5
      vertex 14.5 4.7 5.5
    endloop
  endfacet
  facet normal 0 1 -0
    outer loop
      vertex 14.6 4.7 5.2
      vertex 14.5 4.7 5.5
      vertex 14.6 4.7 5.5
    endloop
  endfacet
  facet normal 0 1 0
    outer loop
      vertex 14.5 4.7 5.5
      vertex 14.6 4.7 5.2
      vertex 14.3 4.7 5.5
    endloop
  endfacet
  facet normal 0 1 0
    outer loop
      vertex 14.3 4.7 2.7
      vertex 14.6 4.7 5.2
      vertex 14.6 4.7 2.7
    endloop
  endfacet
  facet normal 0 1 0
    outer loop
      vertex 14.6 4.7 5.2
      vertex 14.3 4.7 2.7
      vertex 14.3 4.7 5.5
    endloop
  endfacet
  facet normal 0 -1 0
    outer loop
      vertex 14.6 4.7 2.7
      vertex 17 4.7 5.2
      vertex 14.6 4.7 5.2
    endloop
  endfacet
  facet normal 0 -1 -0
    outer loop
      vertex 17 4.7 5.2
      vertex 14.6 4.7 2.7
      vertex 17 4.7 2.7
    endloop
  endfacet
  facet normal 0 1 -0
    outer loop
      vertex 16.7 5 2.7
      vertex 14.6 5 5.5
      vertex 16.7 5 5.5
    endloop
  endfacet
  facet normal 0 1 0
    outer loop
      vertex 14.6 5 5.5
      vertex 16.7 5 2.7
      vertex 14.6 5 2.7
    endloop
  endfacet
  facet normal 1 -0 0
    outer loop
      vertex 14.6 1.5 5.2
      vertex 14.6 4.7 2.7
      vertex 14.6 4.7 5.2
    endloop
  endfacet
  facet normal 1 0 0
    outer loop
      vertex 14.6 4.7 2.7
      vertex 14.6 1.5 5.2
      vertex 14.6 1.5 2.7
    endloop
  endfacet
  facet normal -1 0 0
    outer loop
      vertex 14.3 4.7 2.7
      vertex 14.3 3 5.2
      vertex 14.3 4.7 5.5
    endloop
  endfacet
  facet normal -1 0 0
    outer loop
      vertex 14.3 1.8 2.7
      vertex 14.3 3 5.2
      vertex 14.3 4.7 2.7
    endloop
  endfacet
  facet normal -1 -0 0
    outer loop
      vertex 14.3 3 5.2
      vertex 14.3 1.8 2.7
      vertex 14.3 1.8 5.2
    endloop
  endfacet
  facet normal -1 -0 0
    outer loop
      vertex 14.3 4.7 5.5
      vertex 14.3 3 5.2
      vertex 14.3 3 5.5
    endloop
  endfacet
  facet normal -1 0 0
    outer loop
      vertex 16.6 1.5 2.7
      vertex 16.6 1.9 5.2
      vertex 16.6 1.9 2.7
    endloop
  endfacet
  facet normal -1 -0 0
    outer loop
      vertex 16.6 1.9 5.2
      vertex 16.6 1.5 2.7
      vertex 16.6 1.5 5.2
    endloop
  endfacet
  facet normal 0 1 -0
    outer loop
      vertex 17 1.9 2.7
      vertex 16.6 1.9 5.2
      vertex 17 1.9 5.2
    endloop
  endfacet
  facet normal 0 1 0
    outer loop
      vertex 16.6 1.9 5.2
      vertex 17 1.9 2.7
      vertex 16.6 1.9 2.7
    endloop
  endfacet
  facet normal 0 0 -1
    outer loop
      vertex 16.6 1.5 2.7
      vertex 17 1.9 2.7
      vertex 17 1.5 2.7
    endloop
  endfacet
  facet normal -0 0 -1
    outer loop
      vertex 17 1.9 2.7
      vertex 16.6 1.5 2.7
      vertex 16.6 1.9 2.7
    endloop
  endfacet
  facet normal -1 0 0
    outer loop
      vertex 14.3 1.8 2.4
      vertex 14.3 5 2.7
      vertex 14.3 5 2.4
    endloop
  endfacet
  facet normal -1 -0 0
    outer loop
      vertex 14.3 5 2.7
      vertex 14.3 1.8 2.4
      vertex 14.3 1.8 2.7
    endloop
  endfacet
  facet normal 0 0 -1
    outer loop
      vertex 14.3 1.8 2.4
      vertex 16.7 5 2.4
      vertex 16.7 1.8 2.4
    endloop
  endfacet
  facet normal -0 0 -1
    outer loop
      vertex 16.7 5 2.4
      vertex 14.3 1.8 2.4
      vertex 14.3 5 2.4
    endloop
  endfacet
  facet normal 0 1 -0
    outer loop
      vertex 16.7 5 2.4
      vertex 14.3 5 2.7
      vertex 16.7 5 2.7
    endloop
  endfacet
  facet normal 0 1 0
    outer loop
      vertex 14.3 5 2.7
      vertex 16.7 5 2.4
      vertex 14.3 5 2.4
    endloop
  endfacet
  facet normal 0 0 1
    outer loop
      vertex 17 14.98 8.7
      vertex 16.7 14.68 8.7
      vertex 17 9.8 8.7
    endloop
  endfacet
  facet normal 0 0 1
    outer loop
      vertex 17 14.98 8.7
      vertex 8.8 14.68 8.7
      vertex 16.7 14.68 8.7
    endloop
  endfacet
  facet normal 0 0 1
    outer loop
      vertex 8.8 14.68 8.7
      vertex 8.5 14.98 8.7
      vertex 8.8 3.3 8.7
    endloop
  endfacet
  facet normal -0 0 1
    outer loop
      vertex 8.5 14.98 8.7
      vertex 8.8 14.68 8.7
      vertex 17 14.98 8.7
    endloop
  endfacet
  facet normal -0 0 1
    outer loop
      vertex 16.7 10.1 8.7
      vertex 17 9.8 8.7
      vertex 16.7 14.68 8.7
    endloop
  endfacet
  facet normal 0 0 1
    outer loop
      vertex 16.7 10.1 8.7
      vertex 16.5 9.8 8.7
      vertex 17 9.8 8.7
    endloop
  endfacet
  facet normal 0 0 1
    outer loop
      vertex 16.5 9.8 8.7
      vertex 16.2 10.1 8.7
      vertex 16.5 8 8.7
    endloop
  endfacet
  facet normal -0 0 1
    outer loop
      vertex 16.2 10.1 8.7
      vertex 16.5 9.8 8.7
      vertex 16.7 10.1 8.7
    endloop
  endfacet
  facet normal 0 0 1
    outer loop
      vertex 17 8 8.7
      vertex 16.7 7.7 8.7
      vertex 17 3 8.7
    endloop
  endfacet
  facet normal -0 0 1
    outer loop
      vertex 16.5 8 8.7
      vertex 16.7 7.7 8.7
      vertex 17 8 8.7
    endloop
  endfacet
  facet normal 0 0 1
    outer loop
      vertex 16.5 8 8.7
      vertex 16.2 7.7 8.7
      vertex 16.7 7.7 8.7
    endloop
  endfacet
  facet normal 0 0 1
    outer loop
      vertex 16.2 7.7 8.7
      vertex 16.5 8 8.7
      vertex 16.2 10.1 8.7
    endloop
  endfacet
  facet normal -0 0 1
    outer loop
      vertex 16.7 3.3 8.7
      vertex 17 3 8.7
      vertex 16.7 7.7 8.7
    endloop
  endfacet
  facet normal -0 0 1
    outer loop
      vertex 8.8 3.3 8.7
      vertex 17 3 8.7
      vertex 16.7 3.3 8.7
    endloop
  endfacet
  facet normal 0 0 1
    outer loop
      vertex 8.8 3.3 8.7
      vertex 8.5 3 8.7
      vertex 17 3 8.7
    endloop
  endfacet
  facet normal 0 0 1
    outer loop
      vertex 8.5 3 8.7
      vertex 8.8 3.3 8.7
      vertex 8.5 14.98 8.7
    endloop
  endfacet
  facet normal -1 0 0
    outer loop
      vertex 8.5 3 5.5
      vertex 8.5 14.98 8.7
      vertex 8.5 14.98 5.5
    endloop
  endfacet
  facet normal -1 -0 0
    outer loop
      vertex 8.5 14.98 8.7
      vertex 8.5 3 5.5
      vertex 8.5 3 8.7
    endloop
  endfacet
  facet normal 0 0 -1
    outer loop
      vertex 14.5 3 5.5
      vertex 8.8 3.3 5.5
      vertex 14.5 3.3 5.5
    endloop
  endfacet
  facet normal 0 0 -1
    outer loop
      vertex 8.65 3 5.5
      vertex 8.8 3.3 5.5
      vertex 8.75 3 5.5
    endloop
  endfacet
  facet normal 0 0 -1
    outer loop
      vertex 8.75 3 5.5
      vertex 8.8 3.3 5.5
      vertex 14.5 3 5.5
    endloop
  endfacet
  facet normal 0 0 -1
    outer loop
      vertex 16.7 7.7 5.5
      vertex 17 4.7 5.5
      vertex 16.7 4.7 5.5
    endloop
  endfacet
  facet normal 0 0 -1
    outer loop
      vertex 17 4.7 5.5
      vertex 16.7 7.7 5.5
      vertex 17 8 5.5
    endloop
  endfacet
  facet normal 0 0 -1
    outer loop
      vertex 16.7 7.7 5.5
      vertex 16.5 8 5.5
      vertex 17 8 5.5
    endloop
  endfacet
  facet normal -0 0 -1
    outer loop
      vertex 16.5 8 5.5
      vertex 16.2 7.7 5.5
      vertex 16.5 9.8 5.5
    endloop
  endfacet
  facet normal 0 0 -1
    outer loop
      vertex 16.2 7.7 5.5
      vertex 16.5 8 5.5
      vertex 16.7 7.7 5.5
    endloop
  endfacet
  facet normal 0 0 -1
    outer loop
      vertex 17 9.8 5.5
      vertex 16.7 10.1 5.5
      vertex 17 14.98 5.5
    endloop
  endfacet
  facet normal 0 0 -1
    outer loop
      vertex 16.5 9.8 5.5
      vertex 16.7 10.1 5.5
      vertex 17 9.8 5.5
    endloop
  endfacet
  facet normal 0 0 -1
    outer loop
      vertex 16.5 9.8 5.5
      vertex 16.2 10.1 5.5
      vertex 16.7 10.1 5.5
    endloop
  endfacet
  facet normal 0 0 -1
    outer loop
      vertex 16.2 10.1 5.5
      vertex 16.5 9.8 5.5
      vertex 16.2 7.7 5.5
    endloop
  endfacet
  facet normal 0 0 -1
    outer loop
      vertex 16.7 14.68 5.5
      vertex 17 14.98 5.5
      vertex 16.7 10.1 5.5
    endloop
  endfacet
  facet normal 0 0 -1
    outer loop
      vertex 8.8 14.68 5.5
      vertex 17 14.98 5.5
      vertex 16.7 14.68 5.5
    endloop
  endfacet
  facet normal 0 0 -1
    outer loop
      vertex 8.5 3 5.5
      vertex 8.8 3.3 5.5
      vertex 8.65 3 5.5
    endloop
  endfacet
  facet normal -0 0 -1
    outer loop
      vertex 8.8 3.3 5.5
      vertex 8.5 3 5.5
      vertex 8.8 14.68 5.5
    endloop
  endfacet
  facet normal 0 0 -1
    outer loop
      vertex 8.8 14.68 5.5
      vertex 8.5 14.98 5.5
      vertex 17 14.98 5.5
    endloop
  endfacet
  facet normal 0 0 -1
    outer loop
      vertex 8.5 14.98 5.5
      vertex 8.8 14.68 5.5
      vertex 8.5 3 5.5
    endloop
  endfacet
  facet normal -0 0 1
    outer loop
      vertex 14.5 4.7 5.5
      vertex 16.7 3.3 5.5
      vertex 16.7 4.7 5.5
    endloop
  endfacet
  facet normal 0 0 1
    outer loop
      vertex 16.7 3.3 5.5
      vertex 14.5 4.7 5.5
      vertex 14.5 3.3 5.5
    endloop
  endfacet
  facet normal -1 0 0
    outer loop
      vertex 16.7 4.7 5.5
      vertex 16.7 7.7 8.7
      vertex 16.7 7.7 5.5
    endloop
  endfacet
  facet normal -1 0 0
    outer loop
      vertex 16.7 3.3 8.7
      vertex 16.7 4.7 5.5
      vertex 16.7 3.3 5.5
    endloop
  endfacet
  facet normal -1 0 0
    outer loop
      vertex 16.7 4.7 5.5
      vertex 16.7 3.3 8.7
      vertex 16.7 7.7 8.7
    endloop
  endfacet
  facet normal 0 1 -0
    outer loop
      vertex 17 8 5.5
      vertex 16.5 8 8.7
      vertex 17 8 8.7
    endloop
  endfacet
  facet normal 0 1 0
    outer loop
      vertex 16.5 8 8.7
      vertex 17 8 5.5
      vertex 16.5 8 5.5
    endloop
  endfacet
  facet normal -1 0 0
    outer loop
      vertex 16.2 7.7 5.5
      vertex 16.2 10.1 8.7
      vertex 16.2 10.1 5.5
    endloop
  endfacet
  facet normal -1 -0 0
    outer loop
      vertex 16.2 10.1 8.7
      vertex 16.2 7.7 5.5
      vertex 16.2 7.7 8.7
    endloop
  endfacet
  facet normal 0 -1 0
    outer loop
      vertex 16.2 7.7 5.5
      vertex 16.7 7.7 8.7
      vertex 16.2 7.7 8.7
    endloop
  endfacet
  facet normal 0 -1 -0
    outer loop
      vertex 16.7 7.7 8.7
      vertex 16.2 7.7 5.5
      vertex 16.7 7.7 5.5
    endloop
  endfacet
  facet normal 1 -0 0
    outer loop
      vertex 16.5 8 8.7
      vertex 16.5 9.8 5.5
      vertex 16.5 9.8 8.7
    endloop
  endfacet
  facet normal 1 0 0
    outer loop
      vertex 16.5 9.8 5.5
      vertex 16.5 8 8.7
      vertex 16.5 8 5.5
    endloop
  endfacet
  facet normal 0 1 -0
    outer loop
      vertex 16.7 10.1 5.5
      vertex 16.2 10.1 8.7
      vertex 16.7 10.1 8.7
    endloop
  endfacet
  facet normal 0 1 0
    outer loop
      vertex 16.2 10.1 8.7
      vertex 16.7 10.1 5.5
      vertex 16.2 10.1 5.5
    endloop
  endfacet
  facet normal 1 -0 0
    outer loop
      vertex 17 9.8 8.7
      vertex 17 14.98 5.5
      vertex 17 14.98 8.7
    endloop
  endfacet
  facet normal 1 0 0
    outer loop
      vertex 17 14.98 5.5
      vertex 17 9.8 8.7
      vertex 17 9.8 5.5
    endloop
  endfacet
  facet normal 0 -1 0
    outer loop
      vertex 16.5 9.8 5.5
      vertex 17 9.8 8.7
      vertex 16.5 9.8 8.7
    endloop
  endfacet
  facet normal 0 -1 -0
    outer loop
      vertex 17 9.8 8.7
      vertex 16.5 9.8 5.5
      vertex 17 9.8 5.5
    endloop
  endfacet
  facet normal -1 0 0
    outer loop
      vertex 16.7 10.1 5.5
      vertex 16.7 14.68 8.7
      vertex 16.7 14.68 5.5
    endloop
  endfacet
  facet normal -1 -0 0
    outer loop
      vertex 16.7 14.68 8.7
      vertex 16.7 10.1 5.5
      vertex 16.7 10.1 8.7
    endloop
  endfacet
  facet normal 0 1 -0
    outer loop
      vertex 17 14.98 5.5
      vertex 8.5 14.98 8.7
      vertex 17 14.98 8.7
    endloop
  endfacet
  facet normal 0 1 0
    outer loop
      vertex 8.5 14.98 8.7
      vertex 17 14.98 5.5
      vertex 8.5 14.98 5.5
    endloop
  endfacet
  facet normal 0 -1 0
    outer loop
      vertex 8.8 14.68 5.5
      vertex 16.7 14.68 8.7
      vertex 8.8 14.68 8.7
    endloop
  endfacet
  facet normal 0 -1 -0
    outer loop
      vertex 16.7 14.68 8.7
      vertex 8.8 14.68 5.5
      vertex 16.7 14.68 5.5
    endloop
  endfacet
  facet normal 1 -0 0
    outer loop
      vertex 8.8 3.3 8.7
      vertex 8.8 14.68 5.5
      vertex 8.8 14.68 8.7
    endloop
  endfacet
  facet normal 1 0 0
    outer loop
      vertex 8.8 14.68 5.5
      vertex 8.8 3.3 8.7
      vertex 8.8 3.3 5.5
    endloop
  endfacet
  facet normal 0 1 0
    outer loop
      vertex 14.5 3.3 5.5
      vertex 16.7 3.3 8.7
      vertex 16.7 3.3 5.5
    endloop
  endfacet
  facet normal 0 1 0
    outer loop
      vertex 16.7 3.3 8.7
      vertex 14.5 3.3 5.5
      vertex 8.8 3.3 8.7
    endloop
  endfacet
  facet normal 0 1 0
    outer loop
      vertex 8.8 3.3 8.7
      vertex 14.5 3.3 5.5
      vertex 8.8 3.3 5.5
    endloop
  endfacet
  facet normal 0 -1 0
    outer loop
      vertex 14.5 3 5.5
      vertex 8.75 3 6.5
      vertex 8.75 3 5.5
    endloop
  endfacet
  facet normal 0 -1 0
    outer loop
      vertex 8.75 3 6.5
      vertex 14.5 3 5.5
      vertex 16.9 3 6.5
    endloop
  endfacet
  facet normal 0 -1 -0
    outer loop
      vertex 16.9 3 6.5
      vertex 14.5 3 5.5
      vertex 16.9 3 5.5
    endloop
  endfacet
  facet normal 0 -1 0
    outer loop
      vertex 8.75 3 6.5
      vertex 8.5 3 8.7
      vertex 8.65 3 6.5
    endloop
  endfacet
  facet normal 0 -1 0
    outer loop
      vertex 8.5 3 5.5
      vertex 8.65 3 6.5
      vertex 8.5 3 8.7
    endloop
  endfacet
  facet normal 0 -1 -0
    outer loop
      vertex 8.65 3 6.5
      vertex 8.5 3 5.5
      vertex 8.65 3 5.5
    endloop
  endfacet
  facet normal 0 -1 0
    outer loop
      vertex 8.5 3 8.7
      vertex 8.75 3 6.5
      vertex 17 3 8.7
    endloop
  endfacet
  facet normal 0 -1 0
    outer loop
      vertex 16.9 3 6.5
      vertex 17 3 8.7
      vertex 8.75 3 6.5
    endloop
  endfacet
  facet normal 0 -1 -0
    outer loop
      vertex 17 3 8.7
      vertex 16.9 3 6.5
      vertex 17 3 6.5
    endloop
  endfacet
  facet normal 1 -0 0
    outer loop
      vertex 17.1 1.4 8.7
      vertex 17.1 1.8 5.5
      vertex 17.1 1.8 8.7
    endloop
  endfacet
  facet normal 1 0 0
    outer loop
      vertex 17.1 1.8 5.5
      vertex 17.1 1.4 8.7
      vertex 17.1 1.4 5.5
    endloop
  endfacet
  facet normal -0 0 1
    outer loop
      vertex 16.7 1.8 8.7
      vertex 17.1 1.4 8.7
      vertex 17.1 1.8 8.7
    endloop
  endfacet
  facet normal 0 0 1
    outer loop
      vertex 17.1 1.4 8.7
      vertex 16.7 1.8 8.7
      vertex 16.7 1.4 8.7
    endloop
  endfacet
  facet normal -1 0 0
    outer loop
      vertex 16.7 1.5 6.5
      vertex 16.7 1.8 5.5
      vertex 16.7 1.5 5.5
    endloop
  endfacet
  facet normal -1 0 0
    outer loop
      vertex 16.7 1.8 5.5
      vertex 16.7 1.5 6.5
      vertex 16.7 1.8 8.7
    endloop
  endfacet
  facet normal -1 0 0
    outer loop
      vertex 16.7 1.4 8.7
      vertex 16.7 1.5 6.5
      vertex 16.7 1.4 6.5
    endloop
  endfacet
  facet normal -1 0 0
    outer loop
      vertex 16.7 1.5 6.5
      vertex 16.7 1.4 8.7
      vertex 16.7 1.8 8.7
    endloop
  endfacet
  facet normal 0 0 1
    outer loop
      vertex 16.9 3 5.5
      vertex 16.7 1.8 5.5
      vertex 16.9 1.8 5.5
    endloop
  endfacet
  facet normal 0 0 1
    outer loop
      vertex 16.7 1.8 5.5
      vertex 14.64 1.8 5.5
      vertex 16.7 1.5 5.5
    endloop
  endfacet
  facet normal -0 0 1
    outer loop
      vertex 14.5 3 5.5
      vertex 16.7 1.8 5.5
      vertex 16.9 3 5.5
    endloop
  endfacet
  facet normal 0 0 1
    outer loop
      vertex 16.7 1.8 5.5
      vertex 14.5 3 5.5
      vertex 14.64 1.8 5.5
    endloop
  endfacet
  facet normal 0 0 1
    outer loop
      vertex 14.5 3 5.5
      vertex 14.24 1.8 5.5
      vertex 14.64 1.8 5.5
    endloop
  endfacet
  facet normal 0 0 1
    outer loop
      vertex 14.24 1.8 5.5
      vertex 11.84 1.8 5.5
      vertex 14.24 1.5 5.5
    endloop
  endfacet
  facet normal 0 0 1
    outer loop
      vertex 14.5 3 5.5
      vertex 11.84 1.8 5.5
      vertex 14.24 1.8 5.5
    endloop
  endfacet
  facet normal 0 0 1
    outer loop
      vertex 14.5 3 5.5
      vertex 11.44 1.8 5.5
      vertex 11.84 1.8 5.5
    endloop
  endfacet
  facet normal 0 0 1
    outer loop
      vertex 11.44 1.8 5.5
      vertex 9.04 1.8 5.5
      vertex 11.44 1.5 5.5
    endloop
  endfacet
  facet normal -0 0 1
    outer loop
      vertex 8.75 3 5.5
      vertex 11.44 1.8 5.5
      vertex 14.5 3 5.5
    endloop
  endfacet
  facet normal 0 0 1
    outer loop
      vertex 11.44 1.8 5.5
      vertex 8.75 3 5.5
      vertex 9.04 1.8 5.5
    endloop
  endfacet
  facet normal 0 0 1
    outer loop
      vertex 9.04 1.8 5.5
      vertex 8.75 3 5.5
      vertex 8.75 1.8 5.5
    endloop
  endfacet
  facet normal 0 0 1
    outer loop
      vertex 16.7 1.5 5.5
      vertex 14.64 1.8 5.5
      vertex 14.64 1.5 5.5
    endloop
  endfacet
  facet normal 0 0 1
    outer loop
      vertex 14.24 1.5 5.5
      vertex 11.84 1.8 5.5
      vertex 11.84 1.5 5.5
    endloop
  endfacet
  facet normal 0 0 1
    outer loop
      vertex 11.44 1.5 5.5
      vertex 9.04 1.8 5.5
      vertex 9.04 1.5 5.5
    endloop
  endfacet
  facet normal 0 0 1
    outer loop
      vertex 8.65 3 5.5
      vertex 8.64 1.8 5.5
      vertex 8.65 1.8 5.5
    endloop
  endfacet
  facet normal 0 0 1
    outer loop
      vertex 8.5 1.2 5.5
      vertex 8.64 1.8 5.5
      vertex 8.5 3 5.5
    endloop
  endfacet
  facet normal -0 0 1
    outer loop
      vertex 8.5 3 5.5
      vertex 8.64 1.8 5.5
      vertex 8.65 3 5.5
    endloop
  endfacet
  facet normal -0 0 1
    outer loop
      vertex 8.64 1.4 5.5
      vertex 17 1.2 5.5
      vertex 17 1.4 5.5
    endloop
  endfacet
  facet normal 0 0 1
    outer loop
      vertex 8.64 1.4 5.5
      vertex 8.5 1.2 5.5
      vertex 17 1.2 5.5
    endloop
  endfacet
  facet normal 0 0 1
    outer loop
      vertex 8.64 1.8 5.5
      vertex 8.5 1.2 5.5
      vertex 8.64 1.4 5.5
    endloop
  endfacet
  facet normal 0 0 -1
    outer loop
      vertex 17 1.4 5.5
      vertex 17.1 1.8 5.5
      vertex 17.1 1.4 5.5
    endloop
  endfacet
  facet normal -0 0 -1
    outer loop
      vertex 17.1 1.8 5.5
      vertex 17 1.4 5.5
      vertex 17 1.8 5.5
    endloop
  endfacet
  facet normal 0 -1 0
    outer loop
      vertex 8.64 1.4 8.7
      vertex 9.04 1.4 6.5
      vertex 9.04 1.4 8.7
    endloop
  endfacet
  facet normal 0 -1 0
    outer loop
      vertex 8.64 1.4 5.5
      vertex 11.44 1.4 6.5
      vertex 9.04 1.4 6.5
    endloop
  endfacet
  facet normal 0 -1 -0
    outer loop
      vertex 11.44 1.4 6.5
      vertex 8.64 1.4 5.5
      vertex 11.84 1.4 6.5
    endloop
  endfacet
  facet normal 0 -1 0
    outer loop
      vertex 17 1.4 5.5
      vertex 11.84 1.4 6.5
      vertex 8.64 1.4 5.5
    endloop
  endfacet
  facet normal 0 -1 0
    outer loop
      vertex 11.84 1.4 6.5
      vertex 17 1.4 5.5
      vertex 14.24 1.4 6.5
    endloop
  endfacet
  facet normal 0 -1 0
    outer loop
      vertex 14.24 1.4 6.5
      vertex 17 1.4 5.5
      vertex 14.64 1.4 6.5
    endloop
  endfacet
  facet normal 0 -1 0
    outer loop
      vertex 8.64 1.4 5.5
      vertex 9.04 1.4 6.5
      vertex 8.64 1.4 8.7
    endloop
  endfacet
  facet normal 0 -1 0
    outer loop
      vertex 11.44 1.4 6.5
      vertex 11.84 1.4 8.7
      vertex 11.44 1.4 8.7
    endloop
  endfacet
  facet normal 0 -1 -0
    outer loop
      vertex 11.84 1.4 8.7
      vertex 11.44 1.4 6.5
      vertex 11.84 1.4 6.5
    endloop
  endfacet
  facet normal 0 -1 0
    outer loop
      vertex 14.24 1.4 6.5
      vertex 14.64 1.4 8.7
      vertex 14.24 1.4 8.7
    endloop
  endfacet
  facet normal 0 -1 -0
    outer loop
      vertex 14.64 1.4 8.7
      vertex 14.24 1.4 6.5
      vertex 14.64 1.4 6.5
    endloop
  endfacet
  facet normal 0 -1 0
    outer loop
      vertex 16.7 1.4 6.5
      vertex 17.1 1.4 8.7
      vertex 16.7 1.4 8.7
    endloop
  endfacet
  facet normal 0 -1 0
    outer loop
      vertex 14.64 1.4 6.5
      vertex 17 1.4 5.5
      vertex 16.7 1.4 6.5
    endloop
  endfacet
  facet normal 0 -1 0
    outer loop
      vertex 17.1 1.4 5.5
      vertex 16.7 1.4 6.5
      vertex 17 1.4 5.5
    endloop
  endfacet
  facet normal 0 -1 0
    outer loop
      vertex 16.7 1.4 6.5
      vertex 17.1 1.4 5.5
      vertex 17.1 1.4 8.7
    endloop
  endfacet
  facet normal 0 1 0
    outer loop
      vertex 16.9 1.8 6.5
      vertex 17.1 1.8 8.7
      vertex 17 1.8 6.5
    endloop
  endfacet
  facet normal 0 1 -0
    outer loop
      vertex 17.1 1.8 5.5
      vertex 17 1.8 6.5
      vertex 17.1 1.8 8.7
    endloop
  endfacet
  facet normal 0 1 0
    outer loop
      vertex 17 1.8 6.5
      vertex 17.1 1.8 5.5
      vertex 17 1.8 5.5
    endloop
  endfacet
  facet normal 0 1 0
    outer loop
      vertex 17.1 1.8 8.7
      vertex 16.9 1.8 6.5
      vertex 16.7 1.8 8.7
    endloop
  endfacet
  facet normal 0 1 0
    outer loop
      vertex 16.7 1.8 5.5
      vertex 16.9 1.8 6.5
      vertex 16.9 1.8 5.5
    endloop
  endfacet
  facet normal 0 1 0
    outer loop
      vertex 16.9 1.8 6.5
      vertex 16.7 1.8 5.5
      vertex 16.7 1.8 8.7
    endloop
  endfacet
  facet normal 1 0 0
    outer loop
      vertex 14.64 1.8 8.7
      vertex 14.64 1.5 6.5
      vertex 14.64 1.8 5.5
    endloop
  endfacet
  facet normal 1 -0 0
    outer loop
      vertex 14.64 1.4 8.7
      vertex 14.64 1.5 6.5
      vertex 14.64 1.8 8.7
    endloop
  endfacet
  facet normal 1 0 0
    outer loop
      vertex 14.64 1.5 6.5
      vertex 14.64 1.4 8.7
      vertex 14.64 1.4 6.5
    endloop
  endfacet
  facet normal 1 0 0
    outer loop
      vertex 14.64 1.8 5.5
      vertex 14.64 1.5 6.5
      vertex 14.64 1.5 5.5
    endloop
  endfacet
  facet normal -0 0 1
    outer loop
      vertex 14.24 1.8 8.7
      vertex 14.64 1.4 8.7
      vertex 14.64 1.8 8.7
    endloop
  endfacet
  facet normal 0 0 1
    outer loop
      vertex 14.64 1.4 8.7
      vertex 14.24 1.8 8.7
      vertex 14.24 1.4 8.7
    endloop
  endfacet
  facet normal -1 0 0
    outer loop
      vertex 14.24 1.5 6.5
      vertex 14.24 1.8 5.5
      vertex 14.24 1.5 5.5
    endloop
  endfacet
  facet normal -1 0 0
    outer loop
      vertex 14.24 1.8 5.5
      vertex 14.24 1.5 6.5
      vertex 14.24 1.8 8.7
    endloop
  endfacet
  facet normal -1 0 0
    outer loop
      vertex 14.24 1.4 8.7
      vertex 14.24 1.5 6.5
      vertex 14.24 1.4 6.5
    endloop
  endfacet
  facet normal -1 0 0
    outer loop
      vertex 14.24 1.5 6.5
      vertex 14.24 1.4 8.7
      vertex 14.24 1.8 8.7
    endloop
  endfacet
  facet normal 0 1 -0
    outer loop
      vertex 14.64 1.8 5.5
      vertex 14.24 1.8 8.7
      vertex 14.64 1.8 8.7
    endloop
  endfacet
  facet normal 0 1 0
    outer loop
      vertex 14.24 1.8 8.7
      vertex 14.64 1.8 5.5
      vertex 14.24 1.8 5.5
    endloop
  endfacet
  facet normal 1 0 0
    outer loop
      vertex 11.84 1.8 8.7
      vertex 11.84 1.5 6.5
      vertex 11.84 1.8 5.5
    endloop
  endfacet
  facet normal 1 -0 0
    outer loop
      vertex 11.84 1.4 8.7
      vertex 11.84 1.5 6.5
      vertex 11.84 1.8 8.7
    endloop
  endfacet
  facet normal 1 0 0
    outer loop
      vertex 11.84 1.5 6.5
      vertex 11.84 1.4 8.7
      vertex 11.84 1.4 6.5
    endloop
  endfacet
  facet normal 1 0 0
    outer loop
      vertex 11.84 1.8 5.5
      vertex 11.84 1.5 6.5
      vertex 11.84 1.5 5.5
    endloop
  endfacet
  facet normal -0 0 1
    outer loop
      vertex 11.44 1.8 8.7
      vertex 11.84 1.4 8.7
      vertex 11.84 1.8 8.7
    endloop
  endfacet
  facet normal 0 0 1
    outer loop
      vertex 11.84 1.4 8.7
      vertex 11.44 1.8 8.7
      vertex 11.44 1.4 8.7
    endloop
  endfacet
  facet normal -1 0 0
    outer loop
      vertex 11.44 1.5 6.5
      vertex 11.44 1.8 5.5
      vertex 11.44 1.5 5.5
    endloop
  endfacet
  facet normal -1 0 0
    outer loop
      vertex 11.44 1.8 5.5
      vertex 11.44 1.5 6.5
      vertex 11.44 1.8 8.7
    endloop
  endfacet
  facet normal -1 0 0
    outer loop
      vertex 11.44 1.4 8.7
      vertex 11.44 1.5 6.5
      vertex 11.44 1.4 6.5
    endloop
  endfacet
  facet normal -1 0 0
    outer loop
      vertex 11.44 1.5 6.5
      vertex 11.44 1.4 8.7
      vertex 11.44 1.8 8.7
    endloop
  endfacet
  facet normal 0 1 -0
    outer loop
      vertex 11.84 1.8 5.5
      vertex 11.44 1.8 8.7
      vertex 11.84 1.8 8.7
    endloop
  endfacet
  facet normal 0 1 0
    outer loop
      vertex 11.44 1.8 8.7
      vertex 11.84 1.8 5.5
      vertex 11.44 1.8 5.5
    endloop
  endfacet
  facet normal 1 0 0
    outer loop
      vertex 9.04 1.8 8.7
      vertex 9.04 1.5 6.5
      vertex 9.04 1.8 5.5
    endloop
  endfacet
  facet normal 1 -0 0
    outer loop
      vertex 9.04 1.4 8.7
      vertex 9.04 1.5 6.5
      vertex 9.04 1.8 8.7
    endloop
  endfacet
  facet normal 1 0 0
    outer loop
      vertex 9.04 1.5 6.5
      vertex 9.04 1.4 8.7
      vertex 9.04 1.4 6.5
    endloop
  endfacet
  facet normal 1 0 0
    outer loop
      vertex 9.04 1.8 5.5
      vertex 9.04 1.5 6.5
      vertex 9.04 1.5 5.5
    endloop
  endfacet
  facet normal -0 0 1
    outer loop
      vertex 8.64 1.8 8.7
      vertex 9.04 1.4 8.7
      vertex 9.04 1.8 8.7
    endloop
  endfacet
  facet normal 0 0 1
    outer loop
      vertex 9.04 1.4 8.7
      vertex 8.64 1.8 8.7
      vertex 8.64 1.4 8.7
    endloop
  endfacet
  facet normal -1 0 0
    outer loop
      vertex 8.64 1.4 5.5
      vertex 8.64 1.8 8.7
      vertex 8.64 1.8 5.5
    endloop
  endfacet
  facet normal -1 -0 0
    outer loop
      vertex 8.64 1.8 8.7
      vertex 8.64 1.4 5.5
      vertex 8.64 1.4 8.7
    endloop
  endfacet
  facet normal 0 1 0
    outer loop
      vertex 9.04 1.8 8.7
      vertex 8.75 1.8 6.5
      vertex 8.64 1.8 8.7
    endloop
  endfacet
  facet normal 0 1 -0
    outer loop
      vertex 9.04 1.8 5.5
      vertex 8.75 1.8 6.5
      vertex 9.04 1.8 8.7
    endloop
  endfacet
  facet normal 0 1 0
    outer loop
      vertex 8.75 1.8 6.5
      vertex 9.04 1.8 5.5
      vertex 8.75 1.8 5.5
    endloop
  endfacet
  facet normal 0 1 -0
    outer loop
      vertex 8.65 1.8 6.5
      vertex 8.64 1.8 8.7
      vertex 8.75 1.8 6.5
    endloop
  endfacet
  facet normal 0 1 0
    outer loop
      vertex 8.64 1.8 5.5
      vertex 8.65 1.8 6.5
      vertex 8.65 1.8 5.5
    endloop
  endfacet
  facet normal 0 1 0
    outer loop
      vertex 8.65 1.8 6.5
      vertex 8.64 1.8 5.5
      vertex 8.64 1.8 8.7
    endloop
  endfacet
  facet normal 0 0 -1
    outer loop
      vertex 16.6 1.5 5.2
      vertex 14.6 1.5 5.2
      vertex 16.6 1.9 5.2
    endloop
  endfacet
  facet normal 0 0 -1
    outer loop
      vertex 16.6 1.9 5.2
      vertex 17 4.7 5.2
      vertex 17 1.9 5.2
    endloop
  endfacet
  facet normal 0 0 -1
    outer loop
      vertex 14.6 4.7 5.2
      vertex 16.6 1.9 5.2
      vertex 14.6 1.5 5.2
    endloop
  endfacet
  facet normal 0 0 -1
    outer loop
      vertex 16.6 1.9 5.2
      vertex 14.6 4.7 5.2
      vertex 17 4.7 5.2
    endloop
  endfacet
  facet normal 0 0 -1
    outer loop
      vertex 8.8 1.8 5.2
      vertex 14.3 3 5.2
      vertex 14.3 1.8 5.2
    endloop
  endfacet
  facet normal -0 0 -1
    outer loop
      vertex 14.3 3 5.2
      vertex 8.8 1.8 5.2
      vertex 8.8 3 5.2
    endloop
  endfacet
  facet normal 0 1 -0
    outer loop
      vertex 14.3 3 5.2
      vertex 8.8 3 5.5
      vertex 14.3 3 5.5
    endloop
  endfacet
  facet normal 0 1 0
    outer loop
      vertex 8.8 3 5.5
      vertex 14.3 3 5.2
      vertex 8.8 3 5.2
    endloop
  endfacet
  facet normal 0 1 -0
    outer loop
      vertex 14.3 3 5.5
      vertex 8.75 3 5.5
      vertex 14.5 3 5.5
    endloop
  endfacet
  facet normal 0 1 -0
    outer loop
      vertex 8.8 3 5.5
      vertex 8.75 3 5.5
      vertex 14.3 3 5.5
    endloop
  endfacet
  facet normal 0 1 0
    outer loop
      vertex 8.75 3 5.5
      vertex 8.8 3 5.5
      vertex 8.65 3 5.5
    endloop
  endfacet
  facet normal 0 1 0
    outer loop
      vertex 8.5 3 5.5
      vertex 8.65 3 5.5
      vertex 8.8 3 5.5
    endloop
  endfacet
  facet normal 0 0 -1
    outer loop
      vertex 8.5 1.2 5.4
      vertex 17 1.5 5.4
      vertex 17 1.2 5.4
    endloop
  endfacet
  facet normal -0 0 -1
    outer loop
      vertex 17 1.5 5.4
      vertex 8.5 1.2 5.4
      vertex 8.5 1.5 5.4
    endloop
  endfacet
  facet normal 0 -1 0
    outer loop
      vertex 8.5 1.2 5.4
      vertex 17 1.2 5.5
      vertex 8.5 1.2 5.5
    endloop
  endfacet
  facet normal 0 -1 -0
    outer loop
      vertex 17 1.2 5.5
      vertex 8.5 1.2 5.4
      vertex 17 1.2 5.4
    endloop
  endfacet
  facet normal -1 0 0
    outer loop
      vertex 14.5 3 5.5
      vertex 14.5 3.3 5.5
      vertex 14.5 4.7 5.5
    endloop
  endfacet
  facet normal -0 0 1
    outer loop
      vertex 16.9 3 6.5
      vertex 17 1.8 6.5
      vertex 17 3 6.5
    endloop
  endfacet
  facet normal 0 0 1
    outer loop
      vertex 17 1.8 6.5
      vertex 16.9 3 6.5
      vertex 16.9 1.8 6.5
    endloop
  endfacet
  facet normal -1 0 0
    outer loop
      vertex 16.9 1.8 5.5
      vertex 16.9 3 6.5
      vertex 16.9 3 5.5
    endloop
  endfacet
  facet normal -1 -0 0
    outer loop
      vertex 16.9 3 6.5
      vertex 16.9 1.8 5.5
      vertex 16.9 1.8 6.5
    endloop
  endfacet
  facet normal -0 0 1
    outer loop
      vertex 14.64 1.5 6.5
      vertex 16.7 1.4 6.5
      vertex 16.7 1.5 6.5
    endloop
  endfacet
  facet normal 0 0 1
    outer loop
      vertex 16.7 1.4 6.5
      vertex 14.64 1.5 6.5
      vertex 14.64 1.4 6.5
    endloop
  endfacet
  facet normal 0 1 -0
    outer loop
      vertex 16.7 1.5 5.5
      vertex 14.64 1.5 6.5
      vertex 16.7 1.5 6.5
    endloop
  endfacet
  facet normal 0 1 0
    outer loop
      vertex 14.64 1.5 6.5
      vertex 16.7 1.5 5.5
      vertex 14.64 1.5 5.5
    endloop
  endfacet
  facet normal -0 0 1
    outer loop
      vertex 11.84 1.5 6.5
      vertex 14.24 1.4 6.5
      vertex 14.24 1.5 6.5
    endloop
  endfacet
  facet normal 0 0 1
    outer loop
      vertex 14.24 1.4 6.5
      vertex 11.84 1.5 6.5
      vertex 11.84 1.4 6.5
    endloop
  endfacet
  facet normal 0 1 -0
    outer loop
      vertex 14.24 1.5 5.5
      vertex 11.84 1.5 6.5
      vertex 14.24 1.5 6.5
    endloop
  endfacet
  facet normal 0 1 0
    outer loop
      vertex 11.84 1.5 6.5
      vertex 14.24 1.5 5.5
      vertex 11.84 1.5 5.5
    endloop
  endfacet
  facet normal -0 0 1
    outer loop
      vertex 9.04 1.5 6.5
      vertex 11.44 1.4 6.5
      vertex 11.44 1.5 6.5
    endloop
  endfacet
  facet normal 0 0 1
    outer loop
      vertex 11.44 1.4 6.5
      vertex 9.04 1.5 6.5
      vertex 9.04 1.4 6.5
    endloop
  endfacet
  facet normal 0 1 -0
    outer loop
      vertex 11.44 1.5 5.5
      vertex 9.04 1.5 6.5
      vertex 11.44 1.5 6.5
    endloop
  endfacet
  facet normal 0 1 0
    outer loop
      vertex 9.04 1.5 6.5
      vertex 11.44 1.5 5.5
      vertex 9.04 1.5 5.5
    endloop
  endfacet
  facet normal 1 -0 0
    outer loop
      vertex 8.75 1.8 6.5
      vertex 8.75 3 5.5
      vertex 8.75 3 6.5
    endloop
  endfacet
  facet normal 1 0 0
    outer loop
      vertex 8.75 3 5.5
      vertex 8.75 1.8 6.5
      vertex 8.75 1.8 5.5
    endloop
  endfacet
  facet normal -0 0 1
    outer loop
      vertex 8.65 3 6.5
      vertex 8.75 1.8 6.5
      vertex 8.75 3 6.5
    endloop
  endfacet
  facet normal 0 0 1
    outer loop
      vertex 8.75 1.8 6.5
      vertex 8.65 3 6.5
      vertex 8.65 1.8 6.5
    endloop
  endfacet
  facet normal -1 0 0
    outer loop
      vertex 8.65 1.8 5.5
      vertex 8.65 3 6.5
      vertex 8.65 3 5.5
    endloop
  endfacet
  facet normal -1 -0 0
    outer loop
      vertex 8.65 3 6.5
      vertex 8.65 1.8 5.5
      vertex 8.65 1.8 6.5
    endloop
  endfacet
  facet normal 1 -0 0
    outer loop
      vertex 17 1.5 8.9439
      vertex 17 8 8.7
      vertex 17 8 10.9256
    endloop
  endfacet
  facet normal 1 0 0
    outer loop
      vertex 17 8 8.7
      vertex 17 1.5 8.9439
      vertex 17 1.5 8.7
    endloop
  endfacet
  facet normal -1 0 0
    outer loop
      vertex 8.5 8.89999 11.5
      vertex 8.5 14.98 9.14353
      vertex 8.5 14.98 8.7
    endloop
  endfacet
  facet normal -1 0 0
    outer loop
      vertex 8.5 14.98 9.14353
      vertex 8.5 8.89999 11.5
      vertex 8.5 14.98 9.44353
    endloop
  endfacet
  facet normal -1 0 0
    outer loop
      vertex 8.5 1.5 8.7
      vertex 8.5 8.89999 11.5
      vertex 8.5 14.98 8.7
    endloop
  endfacet
  facet normal -1 0 0
    outer loop
      vertex 8.5 1.5 8.9439
      vertex 8.5 8.89999 11.5
      vertex 8.5 1.5 8.7
    endloop
  endfacet
  facet normal -1 0 0
    outer loop
      vertex 8.5 1.5 8.9439
      vertex 8.5 1.5 9.24389
      vertex 8.5 8.89999 11.5
    endloop
  endfacet
  facet normal -1 0 0
    outer loop
      vertex 8.5 0.700012 8.99999
      vertex 8.5 1.5 8.9439
      vertex 8.5 0.700012 8.7
    endloop
  endfacet
  facet normal -1 0 0
    outer loop
      vertex 8.5 1.5 8.9439
      vertex 8.5 0.700012 8.99999
      vertex 8.5 1.5 9.24389
    endloop
  endfacet
  facet normal -1 0 0
    outer loop
      vertex 8.5 14.98 9.14353
      vertex 8.5 15.7 9.2
      vertex 8.5 15.7 8.9
    endloop
  endfacet
  facet normal -1 -0 0
    outer loop
      vertex 8.5 15.7 9.2
      vertex 8.5 14.98 9.14353
      vertex 8.5 14.98 9.44353
    endloop
  endfacet
  facet normal 0 0 -1
    outer loop
      vertex 17 1.5 8.7
      vertex 16.7 1.8 8.7
      vertex 17 8 8.7
    endloop
  endfacet
  facet normal 0 0 -1
    outer loop
      vertex 17 1.5 8.7
      vertex 8.8 1.8 8.7
      vertex 16.7 1.8 8.7
    endloop
  endfacet
  facet normal -0 0 -1
    outer loop
      vertex 8.8 1.8 8.7
      vertex 8.5 1.5 8.7
      vertex 8.8 14.68 8.7
    endloop
  endfacet
  facet normal 0 0 -1
    outer loop
      vertex 8.5 1.5 8.7
      vertex 8.8 1.8 8.7
      vertex 17 1.5 8.7
    endloop
  endfacet
  facet normal 0 0 -1
    outer loop
      vertex 16.7 7.7 8.7
      vertex 17 8 8.7
      vertex 16.7 1.8 8.7
    endloop
  endfacet
  facet normal 0 0 -1
    outer loop
      vertex 16.7 7.7 8.7
      vertex 16.5 8 8.7
      vertex 17 8 8.7
    endloop
  endfacet
  facet normal -0 0 -1
    outer loop
      vertex 16.5 8 8.7
      vertex 16.2 7.7 8.7
      vertex 16.5 9.8 8.7
    endloop
  endfacet
  facet normal 0 0 -1
    outer loop
      vertex 16.2 7.7 8.7
      vertex 16.5 8 8.7
      vertex 16.7 7.7 8.7
    endloop
  endfacet
  facet normal 0 0 -1
    outer loop
      vertex 17 9.8 8.7
      vertex 16.7 10.1 8.7
      vertex 17 14.98 8.7
    endloop
  endfacet
  facet normal 0 0 -1
    outer loop
      vertex 16.5 9.8 8.7
      vertex 16.7 10.1 8.7
      vertex 17 9.8 8.7
    endloop
  endfacet
  facet normal 0 0 -1
    outer loop
      vertex 16.5 9.8 8.7
      vertex 16.2 10.1 8.7
      vertex 16.7 10.1 8.7
    endloop
  endfacet
  facet normal 0 0 -1
    outer loop
      vertex 16.2 10.1 8.7
      vertex 16.5 9.8 8.7
      vertex 16.2 7.7 8.7
    endloop
  endfacet
  facet normal 0 0 -1
    outer loop
      vertex 16.7 14.68 8.7
      vertex 17 14.98 8.7
      vertex 16.7 10.1 8.7
    endloop
  endfacet
  facet normal 0 0 -1
    outer loop
      vertex 8.8 14.68 8.7
      vertex 17 14.98 8.7
      vertex 16.7 14.68 8.7
    endloop
  endfacet
  facet normal 0 0 -1
    outer loop
      vertex 8.8 14.68 8.7
      vertex 8.5 14.98 8.7
      vertex 17 14.98 8.7
    endloop
  endfacet
  facet normal 0 0 -1
    outer loop
      vertex 8.5 14.98 8.7
      vertex 8.8 14.68 8.7
      vertex 8.5 1.5 8.7
    endloop
  endfacet
  facet normal 0 -1 0
    outer loop
      vertex 8.5 1.5 8.7
      vertex 16.622 1.5 8.9439
      vertex 8.5 1.5 8.9439
    endloop
  endfacet
  facet normal 0 -1 0
    outer loop
      vertex 17 1.5 8.7
      vertex 16.622 1.5 8.9439
      vertex 8.5 1.5 8.7
    endloop
  endfacet
  facet normal 0 -1 0
    outer loop
      vertex 16.622 1.5 8.9439
      vertex 17 1.5 8.7
      vertex 17 1.5 8.9439
    endloop
  endfacet
  facet normal 0 1 -0
    outer loop
      vertex 16.7 1.8 8.7
      vertex 16.2927 1.8 9.03536
      vertex 16.7 1.8 9.03536
    endloop
  endfacet
  facet normal 0 1 0
    outer loop
      vertex 8.8 1.8 8.7
      vertex 16.2927 1.8 9.03536
      vertex 16.7 1.8 8.7
    endloop
  endfacet
  facet normal 0 1 0
    outer loop
      vertex 16.2927 1.8 9.03536
      vertex 8.8 1.8 8.7
      vertex 8.8 1.8 9.03536
    endloop
  endfacet
  facet normal -1 0 0
    outer loop
      vertex 16.7 1.8 9.03536
      vertex 16.7 7.7 8.7
      vertex 16.7 1.8 8.7
    endloop
  endfacet
  facet normal -1 0 0
    outer loop
      vertex 16.7 7.7 8.7
      vertex 16.7 1.8 9.03536
      vertex 16.7 7.7 10.8341
    endloop
  endfacet
  facet normal 0 1 -0
    outer loop
      vertex 17 8 8.7
      vertex 16.5 8 10.9256
      vertex 17 8 10.9256
    endloop
  endfacet
  facet normal 0 1 0
    outer loop
      vertex 16.5 8 10.9256
      vertex 17 8 8.7
      vertex 16.5 8 8.7
    endloop
  endfacet
  facet normal -1 0 0
    outer loop
      vertex 16.2 10.1 8.7
      vertex 16.2 8.89999 11.2
      vertex 16.2 10.1 10.7941
    endloop
  endfacet
  facet normal -1 0 0
    outer loop
      vertex 16.2 7.7 8.7
      vertex 16.2 8.89999 11.2
      vertex 16.2 10.1 8.7
    endloop
  endfacet
  facet normal -1 0 0
    outer loop
      vertex 16.2 8.89999 11.2
      vertex 16.2 7.7 8.7
      vertex 16.2 7.7 10.8341
    endloop
  endfacet
  facet normal 0 -1 0
    outer loop
      vertex 16.2 7.7 8.7
      vertex 16.7 7.7 10.8341
      vertex 16.2 7.7 10.8341
    endloop
  endfacet
  facet normal 0 -1 -0
    outer loop
      vertex 16.7 7.7 10.8341
      vertex 16.2 7.7 8.7
      vertex 16.7 7.7 8.7
    endloop
  endfacet
  facet normal 1 0 0
    outer loop
      vertex 16.5 8.89999 11.2
      vertex 16.5 9.8 8.7
      vertex 16.5 9.8 10.8956
    endloop
  endfacet
  facet normal 1 0 0
    outer loop
      vertex 16.5 8 8.7
      vertex 16.5 8.89999 11.2
      vertex 16.5 8 10.9256
    endloop
  endfacet
  facet normal 1 0 0
    outer loop
      vertex 16.5 8.89999 11.2
      vertex 16.5 8 8.7
      vertex 16.5 9.8 8.7
    endloop
  endfacet
  facet normal 0 1 -0
    outer loop
      vertex 16.7 10.1 8.7
      vertex 16.2 10.1 10.7941
      vertex 16.7 10.1 10.7941
    endloop
  endfacet
  facet normal 0 1 0
    outer loop
      vertex 16.2 10.1 10.7941
      vertex 16.7 10.1 8.7
      vertex 16.2 10.1 8.7
    endloop
  endfacet
  facet normal 1 0 0
    outer loop
      vertex 17 9.8 8.7
      vertex 17 14.98 9.14353
      vertex 17 9.8 10.8956
    endloop
  endfacet
  facet normal 1 0 0
    outer loop
      vertex 17 14.98 9.14353
      vertex 17 9.8 8.7
      vertex 17 14.98 8.7
    endloop
  endfacet
  facet normal 0 -1 0
    outer loop
      vertex 16.5 9.8 8.7
      vertex 17 9.8 10.8956
      vertex 16.5 9.8 10.8956
    endloop
  endfacet
  facet normal 0 -1 -0
    outer loop
      vertex 17 9.8 10.8956
      vertex 16.5 9.8 8.7
      vertex 17 9.8 8.7
    endloop
  endfacet
  facet normal -1 0 0
    outer loop
      vertex 16.7 10.1 8.7
      vertex 16.7 14.68 9.245
      vertex 16.7 14.68 8.7
    endloop
  endfacet
  facet normal -1 -0 0
    outer loop
      vertex 16.7 14.68 9.245
      vertex 16.7 10.1 8.7
      vertex 16.7 10.1 10.7941
    endloop
  endfacet
  facet normal 0 1 -0
    outer loop
      vertex 17 14.98 8.7
      vertex 8.5 14.98 9.14353
      vertex 17 14.98 9.14353
    endloop
  endfacet
  facet normal 0 1 0
    outer loop
      vertex 8.5 14.98 9.14353
      vertex 17 14.98 8.7
      vertex 8.5 14.98 8.7
    endloop
  endfacet
  facet normal 0 -1 0
    outer loop
      vertex 8.8 14.68 8.7
      vertex 16.7 14.68 9.245
      vertex 8.8 14.68 9.245
    endloop
  endfacet
  facet normal 0 -1 -0
    outer loop
      vertex 16.7 14.68 9.245
      vertex 8.8 14.68 8.7
      vertex 16.7 14.68 8.7
    endloop
  endfacet
  facet normal 1 0 0
    outer loop
      vertex 8.8 8.89999 11.2
      vertex 8.8 14.68 8.7
      vertex 8.8 14.68 9.245
    endloop
  endfacet
  facet normal 1 -0 0
    outer loop
      vertex 8.8 8.62666 11.1167
      vertex 8.8 14.68 8.7
      vertex 8.8 8.89999 11.2
    endloop
  endfacet
  facet normal 1 0 0
    outer loop
      vertex 8.8 1.8 8.7
      vertex 8.8 8.62666 11.1167
      vertex 8.8 1.8 9.03536
    endloop
  endfacet
  facet normal 1 0 0
    outer loop
      vertex 8.8 8.62666 11.1167
      vertex 8.8 1.8 8.7
      vertex 8.8 14.68 8.7
    endloop
  endfacet
  facet normal -1.03924e-06 0.320402 0.947282
    outer loop
      vertex 16.75 14.98 9.44353
      vertex 16.7 14.68 9.545
      vertex 16.75 9.8 11.1956
    endloop
  endfacet
  facet normal -1.14354e-07 0.320402 0.947282
    outer loop
      vertex 16.75 14.98 9.44353
      vertex 8.8 14.68 9.545
      vertex 16.7 14.68 9.545
    endloop
  endfacet
  facet normal -1.09503e-07 0.320402 0.947282
    outer loop
      vertex 8.5 14.98 9.44353
      vertex 8.8 14.68 9.545
      vertex 16.75 14.98 9.44353
    endloop
  endfacet
  facet normal 3.42038e-07 0.320402 0.947282
    outer loop
      vertex 8.5 8.89999 11.5
      vertex 8.8 14.68 9.545
      vertex 8.5 14.98 9.44353
    endloop
  endfacet
  facet normal 0 0.320402 0.947282
    outer loop
      vertex 8.8 14.68 9.545
      vertex 8.5 8.89999 11.5
      vertex 8.8 8.89999 11.5
    endloop
  endfacet
  facet normal 1.17538e-06 0.320402 0.947282
    outer loop
      vertex 16.7 10.1 11.0941
      vertex 16.75 9.8 11.1956
      vertex 16.7 14.68 9.545
    endloop
  endfacet
  facet normal 0 0.320402 0.947282
    outer loop
      vertex 16.7 10.1 11.0941
      vertex 16.5 9.8 11.1956
      vertex 16.75 9.8 11.1956
    endloop
  endfacet
  facet normal -0 0.320402 0.947282
    outer loop
      vertex 16.2 10.1 11.0941
      vertex 16.5 9.8 11.1956
      vertex 16.7 10.1 11.0941
    endloop
  endfacet
  facet normal 2.325e-07 0.320402 0.947282
    outer loop
      vertex 16.2 8.89999 11.5
      vertex 16.5 9.8 11.1956
      vertex 16.2 10.1 11.0941
    endloop
  endfacet
  facet normal 0 0.320402 0.947282
    outer loop
      vertex 16.5 9.8 11.1956
      vertex 16.2 8.89999 11.5
      vertex 16.5 8.89999 11.5
    endloop
  endfacet
  facet normal 0 -0.291626 0.956532
    outer loop
      vertex 8.8 8.89999 11.5
      vertex 8.5 8.89999 11.5
      vertex 8.8 1.8 9.33535
    endloop
  endfacet
  facet normal 0 -0.291627 0.956532
    outer loop
      vertex 16.5 8.89999 11.5
      vertex 16.2 8.89999 11.5
      vertex 16.5 8 11.2256
    endloop
  endfacet
  facet normal 1.09365e-05 -0.291626 0.956532
    outer loop
      vertex 16.75 8 11.2256
      vertex 16.7 7.7 11.1341
      vertex 16.75 1.5 9.24389
    endloop
  endfacet
  facet normal 0 -0.291625 0.956533
    outer loop
      vertex 16.5 8 11.2256
      vertex 16.7 7.7 11.1341
      vertex 16.75 8 11.2256
    endloop
  endfacet
  facet normal 0 -0.291625 0.956533
    outer loop
      vertex 16.5 8 11.2256
      vertex 16.2 7.7 11.1341
      vertex 16.7 7.7 11.1341
    endloop
  endfacet
  facet normal 1.62235e-06 -0.291626 0.956532
    outer loop
      vertex 16.2 7.7 11.1341
      vertex 16.5 8 11.2256
      vertex 16.2 8.89999 11.5
    endloop
  endfacet
  facet normal -6.20348e-06 -0.291626 0.956532
    outer loop
      vertex 16.7 1.8 9.33535
      vertex 16.75 1.5 9.24389
      vertex 16.7 7.7 11.1341
    endloop
  endfacet
  facet normal 0 -0.291625 0.956533
    outer loop
      vertex 8.8 1.8 9.33535
      vertex 16.75 1.5 9.24389
      vertex 16.7 1.8 9.33535
    endloop
  endfacet
  facet normal -1.10572e-07 -0.291628 0.956532
    outer loop
      vertex 8.8 1.8 9.33535
      vertex 8.5 1.5 9.24389
      vertex 16.75 1.5 9.24389
    endloop
  endfacet
  facet normal -1.98039e-06 -0.291626 0.956532
    outer loop
      vertex 8.5 1.5 9.24389
      vertex 8.8 1.8 9.33535
      vertex 8.5 8.89999 11.5
    endloop
  endfacet
  facet normal 1 0 0
    outer loop
      vertex 17.5 8.89999 11.2
      vertex 17.5 0.700012 8.99999
      vertex 17.5 0.700012 8.7
    endloop
  endfacet
  facet normal 1 -0 0
    outer loop
      vertex 17.5 8.89999 11.2
      vertex 17.5 15.7 9.2
      vertex 17.5 8.89999 11.5
    endloop
  endfacet
  facet normal 1 0 0
    outer loop
      vertex 17.5 15.7 9.2
      vertex 17.5 8.89999 11.2
      vertex 17.5 15.7 8.9
    endloop
  endfacet
  facet normal 1 0 -0
    outer loop
      vertex 17.5 8.89999 11.2
      vertex 17.5 8.89999 11.5
      vertex 17.5 0.700012 8.99999
    endloop
  endfacet
  facet normal 4.14726e-07 0.320402 0.947282
    outer loop
      vertex 16.75 9.8 11.1956
      vertex 17.5 15.7 9.2
      vertex 16.75 14.98 9.44353
    endloop
  endfacet
  facet normal -1.00378e-07 0.320403 0.947281
    outer loop
      vertex 8.5 15.7 9.2
      vertex 16.75 14.98 9.44353
      vertex 17.5 15.7 9.2
    endloop
  endfacet
  facet normal -1.09503e-07 0.320403 0.947281
    outer loop
      vertex 16.75 14.98 9.44353
      vertex 8.5 15.7 9.2
      vertex 8.5 14.98 9.44353
    endloop
  endfacet
  facet normal -8.75386e-08 0.320402 0.947282
    outer loop
      vertex 17.5 15.7 9.2
      vertex 16.75 9.8 11.1956
      vertex 17.5 8.89999 11.5
    endloop
  endfacet
  facet normal 0 0.320402 0.947282
    outer loop
      vertex 16.5 8.89999 11.5
      vertex 16.75 9.8 11.1956
      vertex 16.5 9.8 11.1956
    endloop
  endfacet
  facet normal 0 0.320402 0.947282
    outer loop
      vertex 16.75 9.8 11.1956
      vertex 16.5 8.89999 11.5
      vertex 17.5 8.89999 11.5
    endloop
  endfacet
  facet normal 0 0.320402 0.947282
    outer loop
      vertex 16.7 14.68 9.545
      vertex 16.2 10.1 11.0941
      vertex 16.7 10.1 11.0941
    endloop
  endfacet
  facet normal -1.14354e-07 0.320402 0.947282
    outer loop
      vertex 8.8 14.68 9.545
      vertex 16.2 10.1 11.0941
      vertex 16.7 14.68 9.545
    endloop
  endfacet
  facet normal -1.17377e-07 0.320402 0.947282
    outer loop
      vertex 8.8 8.89999 11.5
      vertex 16.2 10.1 11.0941
      vertex 8.8 14.68 9.545
    endloop
  endfacet
  facet normal -1.22081e-07 0.320402 0.947282
    outer loop
      vertex 16.2 10.1 11.0941
      vertex 8.8 8.89999 11.5
      vertex 16.2 8.89999 11.5
    endloop
  endfacet
  facet normal 0 1 -0
    outer loop
      vertex 17.5 15.7 8.9
      vertex 8.5 15.7 9.2
      vertex 17.5 15.7 9.2
    endloop
  endfacet
  facet normal 0 1 0
    outer loop
      vertex 8.5 15.7 9.2
      vertex 17.5 15.7 8.9
      vertex 8.5 15.7 8.9
    endloop
  endfacet
  facet normal -8.12773e-08 -0.320404 -0.947281
    outer loop
      vertex 17.5 8.89999 11.2
      vertex 17 9.8 10.8956
      vertex 17.5 15.7 8.9
    endloop
  endfacet
  facet normal 0 -0.320404 -0.947281
    outer loop
      vertex 16.5 8.89999 11.2
      vertex 17 9.8 10.8956
      vertex 17.5 8.89999 11.2
    endloop
  endfacet
  facet normal -0 -0.320404 -0.947281
    outer loop
      vertex 17 9.8 10.8956
      vertex 16.5 8.89999 11.2
      vertex 16.5 9.8 10.8956
    endloop
  endfacet
  facet normal -1.22204e-06 -0.320404 -0.947281
    outer loop
      vertex 17 14.98 9.14353
      vertex 17.5 15.7 8.9
      vertex 17 9.8 10.8956
    endloop
  endfacet
  facet normal 1.06282e-07 -0.320405 -0.947281
    outer loop
      vertex 8.5 15.7 8.9
      vertex 17 14.98 9.14353
      vertex 8.5 14.98 9.14353
    endloop
  endfacet
  facet normal 1.00377e-07 -0.320405 -0.947281
    outer loop
      vertex 17 14.98 9.14353
      vertex 8.5 15.7 8.9
      vertex 17.5 15.7 8.9
    endloop
  endfacet
  facet normal 1.22081e-07 -0.320404 -0.947281
    outer loop
      vertex 16.2 8.89999 11.2
      vertex 8.8 8.89999 11.2
      vertex 16.2 10.1 10.7941
    endloop
  endfacet
  facet normal 0 -0.320404 -0.947281
    outer loop
      vertex 16.2 10.1 10.7941
      vertex 16.7 14.68 9.245
      vertex 16.7 10.1 10.7941
    endloop
  endfacet
  facet normal 1.05973e-07 -0.320404 -0.947281
    outer loop
      vertex 8.8 14.68 9.245
      vertex 16.2 10.1 10.7941
      vertex 8.8 8.89999 11.2
    endloop
  endfacet
  facet normal 1.14354e-07 -0.320404 -0.947281
    outer loop
      vertex 16.2 10.1 10.7941
      vertex 8.8 14.68 9.245
      vertex 16.7 14.68 9.245
    endloop
  endfacet
  facet normal -2.43045e-07 0.291626 -0.956532
    outer loop
      vertex 17 8 10.9256
      vertex 17.5 0.700012 8.7
      vertex 17 1.5 8.9439
    endloop
  endfacet
  facet normal 0 0.291626 -0.956532
    outer loop
      vertex 17 1.5 8.9439
      vertex 17.5 0.700012 8.7
      vertex 16.622 1.5 8.9439
    endloop
  endfacet
  facet normal 5.18793e-07 0.291626 -0.956532
    outer loop
      vertex 17.5 0.700012 8.7
      vertex 17 8 10.9256
      vertex 17.5 8.89999 11.2
    endloop
  endfacet
  facet normal 0 0.291627 -0.956532
    outer loop
      vertex 16.5 8.89999 11.2
      vertex 17 8 10.9256
      vertex 16.5 8 10.9256
    endloop
  endfacet
  facet normal 0 0.291627 -0.956532
    outer loop
      vertex 17 8 10.9256
      vertex 16.5 8.89999 11.2
      vertex 17.5 8.89999 11.2
    endloop
  endfacet
  facet normal 0 0.291626 -0.956532
    outer loop
      vertex 16.2927 1.8 9.03536
      vertex 16.7 7.7 10.8341
      vertex 16.7 1.8 9.03536
    endloop
  endfacet
  facet normal 0 0.291626 -0.956532
    outer loop
      vertex 16.2927 1.8 9.03536
      vertex 16.2 7.7 10.8341
      vertex 16.7 7.7 10.8341
    endloop
  endfacet
  facet normal 1.39198e-07 0.291626 -0.956532
    outer loop
      vertex 8.8 8.62666 11.1167
      vertex 16.2 7.7 10.8341
      vertex 16.2927 1.8 9.03536
    endloop
  endfacet
  facet normal 9.65221e-08 0.291626 -0.956532
    outer loop
      vertex 8.8 8.62666 11.1167
      vertex 16.2 8.89999 11.2
      vertex 16.2 7.7 10.8341
    endloop
  endfacet
  facet normal 1.23273e-07 0.291625 -0.956533
    outer loop
      vertex 16.2 8.89999 11.2
      vertex 8.8 8.62666 11.1167
      vertex 8.8 8.89999 11.2
    endloop
  endfacet
  facet normal 0 0.291626 -0.956532
    outer loop
      vertex 8.5 0.700012 8.7
      vertex 16.622 1.5 8.9439
      vertex 17.5 0.700012 8.7
    endloop
  endfacet
  facet normal 0 0.291626 -0.956532
    outer loop
      vertex 16.622 1.5 8.9439
      vertex 8.5 0.700012 8.7
      vertex 8.5 1.5 8.9439
    endloop
  endfacet
  facet normal 0 0.291626 -0.956532
    outer loop
      vertex 16.2927 1.8 9.03536
      vertex 8.8 1.8 9.03536
      vertex 8.8 8.62666 11.1167
    endloop
  endfacet
  facet normal 0 -1 0
    outer loop
      vertex 8.5 0.700012 8.7
      vertex 17.5 0.700012 8.99999
      vertex 8.5 0.700012 8.99999
    endloop
  endfacet
  facet normal 0 -1 -0
    outer loop
      vertex 17.5 0.700012 8.99999
      vertex 8.5 0.700012 8.7
      vertex 17.5 0.700012 8.7
    endloop
  endfacet
  facet normal -3.45862e-07 -0.291626 0.956532
    outer loop
      vertex 17.5 8.89999 11.5
      vertex 16.75 8 11.2256
      vertex 17.5 0.700012 8.99999
    endloop
  endfacet
  facet normal 0 -0.291627 0.956532
    outer loop
      vertex 16.5 8.89999 11.5
      vertex 16.75 8 11.2256
      vertex 17.5 8.89999 11.5
    endloop
  endfacet
  facet normal 0 -0.291627 0.956532
    outer loop
      vertex 16.75 8 11.2256
      vertex 16.5 8.89999 11.5
      vertex 16.5 8 11.2256
    endloop
  endfacet
  facet normal 1.6203e-07 -0.291626 0.956532
    outer loop
      vertex 16.75 1.5 9.24389
      vertex 17.5 0.700012 8.99999
      vertex 16.75 8 11.2256
    endloop
  endfacet
  facet normal -1.10572e-07 -0.291626 0.956532
    outer loop
      vertex 8.5 0.700012 8.99999
      vertex 16.75 1.5 9.24389
      vertex 8.5 1.5 9.24389
    endloop
  endfacet
  facet normal -1.01358e-07 -0.291627 0.956532
    outer loop
      vertex 16.75 1.5 9.24389
      vertex 8.5 0.700012 8.99999
      vertex 17.5 0.700012 8.99999
    endloop
  endfacet
  facet normal -1.23273e-07 -0.291626 0.956532
    outer loop
      vertex 16.2 8.89999 11.5
      vertex 8.8 8.89999 11.5
      vertex 16.2 7.7 11.1341
    endloop
  endfacet
  facet normal 0 -0.291626 0.956532
    outer loop
      vertex 16.2 7.7 11.1341
      vertex 16.7 1.8 9.33535
      vertex 16.7 7.7 11.1341
    endloop
  endfacet
  facet normal -1.68902e-07 -0.291626 0.956532
    outer loop
      vertex 8.8 1.8 9.33535
      vertex 16.2 7.7 11.1341
      vertex 8.8 8.89999 11.5
    endloop
  endfacet
  facet normal -1.15471e-07 -0.291626 0.956532
    outer loop
      vertex 16.2 7.7 11.1341
      vertex 8.8 1.8 9.33535
      vertex 16.7 1.8 9.33535
    endloop
  endfacet
endsolid OpenSCAD_Model
